<svg version="1.1" xmlns="http://www.w3.org/2000/svg" xmlns:xlink="http://www.w3.org/1999/xlink" width="560.55855" height="414.91292" viewBox="0,0,560.55855,414.91292"><g transform="translate(47.78679,26.45547)"><g data-paper-data="{&quot;isPaintingLayer&quot;:true}" fill-rule="nonzero" stroke-linecap="butt" stroke-linejoin="miter" stroke-miterlimit="10" stroke-dasharray="" stroke-dashoffset="0" style="mix-blend-mode: normal"><path d="M-46.78678,387.45745v-412.91291h558.55855v412.91292z" fill="#f1d573" stroke="#000000" stroke-width="2"/><path d="M20.27778,82.65265c0,2.5 -2.5,2.5 -2.5,2.5l-2.61954,-0.26394c-2.741,-1.40006 -5.08349,-3.54701 -7.19767,-5.78387c-0.05206,-1.49397 -0.44897,-9.37597 -0.01504,-10.88527c0.29914,-1.04047 1.45351,-1.6095 2.09722,-2.47997c1.34822,-1.82315 3.40076,-4.63048 3.77355,-7.06105c0.26002,-1.69533 -0.34112,-3.47103 0.03082,-5.14538c0.43544,-1.96019 4.56589,-8.20849 5.63646,-9.05369c0.93341,-0.73692 2.35269,-0.35983 3.51471,-0.61281c1.54166,-0.33564 3.07612,-0.71094 4.59103,-1.15188c3.55996,-1.03617 8.23103,-2.51643 11.49431,-4.28817c6.67548,-3.62433 11.44057,-10.15557 18.11666,-13.56561c0,0 2.23607,-1.11804 3.3541,1.11803c1.11803,2.23607 -1.11804,3.3541 -1.11804,3.3541c-2.28988,1.11386 -4.09611,3.03403 -6.02562,4.69571c-3.41951,2.94483 -7.91962,6.60077 -11.89375,8.76571c-3.56115,1.93997 -8.62847,3.59233 -12.52971,4.72084c-1.68642,0.48783 -3.38237,0.96377 -5.11039,1.27348c-0.59033,0.1058 -1.3479,-0.43051 -1.79888,-0.03516c-0.95501,0.8372 -1.29167,2.18727 -1.91702,3.29265c-0.49893,0.88192 -1.26699,1.6731 -1.45553,2.66868c-0.3011,1.58998 0.31508,3.26154 0.03082,4.85462c-0.60948,3.41573 -2.74062,6.60332 -4.77645,9.27747c-0.36848,0.48401 -1.21835,0.62111 -1.36478,1.21154c-0.57231,2.30768 0.1123,4.75858 -0.01505,7.13275c1.43838,1.28923 3.07735,2.38022 4.81434,3.22514l0.38347,-0.26393c0,0 2.5,0 2.5,2.5z" fill="#f1d573" stroke="none" stroke-width="0.5"/><path d="M31.29129,71.63913c-2.5,0 -2.5,-2.5 -2.5,-2.5v-1.5015c0.01451,-1.15584 0.02902,-2.31168 0.04353,-3.46752c2.07655,-5.255 5.19196,-8.53186 11.06502,-9.51071c1.18591,-0.19765 2.52516,0.89807 3.59063,0.34109c0.99182,-0.51847 0.55504,-2.40574 1.5015,-3.003c1.05866,-0.66806 2.5328,0.01385 3.74294,-0.3065c0.95411,-0.25257 1.70452,-1.01098 2.62068,-1.37808c1.37412,-0.5506 2.93151,-0.64703 4.22591,-1.36528c2.61568,-1.45142 4.49828,-3.94459 6.76346,-5.8984c9.27305,-7.99838 17.91337,-16.97372 25.5527,-26.52288c0,0 1.56174,-1.95218 3.51391,-0.39044c1.95217,1.56174 0.39043,3.51391 0.39043,3.51391c-7.83084,9.78855 -16.68828,18.98321 -26.19068,27.18502c-0.21344,0.18422 -7.27863,6.30134 -7.55922,6.45976c-1.46749,0.82854 -3.21809,1.01262 -4.7831,1.63772c-1.16241,0.46429 -2.16639,1.3404 -3.38533,1.62492c-0.74132,0.17303 -1.6442,-0.74977 -2.26306,-0.30649c-0.90983,0.6517 -0.49384,2.51604 -1.5015,3.00301c-1.62941,0.78742 -3.6333,0.04358 -5.41838,0.34109c-3.45841,0.5764 -5.70462,2.26926 -6.953,5.50431c0.01451,0.84616 0.02902,1.69232 0.04353,2.53849v1.5015c0,0 0,2.5 -2.5,2.5z" fill="#f1d573" stroke="none" stroke-width="0.5"/><path d="M40.33768,74.64213c-1.53,3.45953 -2.03519,7.66325 -3.91675,10.82634c-0.75338,1.26651 -2.18292,1.99814 -3.10152,3.15045c-0.49512,0.62109 -0.67091,1.44495 -1.09648,2.11561c-0.16748,0.26394 -0.97769,0.67344 -0.66536,0.66085c0.59257,-0.02388 1.04863,-0.78407 1.63569,-0.69995c6.65184,0.95318 12.06,5.63095 17.07764,9.64503c3.14494,2.51594 6.71592,4.74169 9.68544,7.45057c1.16433,1.06214 2.02906,2.46172 3.31879,3.36747c2.5284,1.77564 5.95956,2.12049 8.76192,3.08062c2.23406,0.76542 4.44138,1.82149 6.79607,2.00135c6.06365,-3.1216 8.93621,-11.1166 12.46015,-16.53835c0.87335,-1.34369 2.20353,-2.35605 3.04789,-3.71814c0.48684,-0.78534 0.35413,-1.87079 0.88537,-2.62681c0.74249,-1.05665 2.31921,-1.46361 2.82415,-2.65223c0.85413,-2.01062 -0.32394,-4.37037 -0.1903,-6.5508c0.03767,-0.61458 0.69268,-1.35259 0.29581,-1.82336c-0.87123,-1.03345 -2.45172,-1.18323 -3.52412,-2.00604c-1.11927,-0.85877 -1.76037,-2.30532 -2.99193,-2.99345c-2.45911,-1.37403 -5.70138,-0.70209 -8.28204,-1.2353c-1.52198,-0.31447 -2.89735,-1.17104 -4.4192,-1.48614c-4.40893,-0.91287 -10.09321,0.03228 -14.61456,0.03228c-7.99555,0 -15.9911,0 -23.98665,0zM43.76013,69.64213c6.85473,0 13.70947,0 20.5642,0c4.8361,0 10.6778,-0.88591 15.41547,0.03228c1.58189,0.30658 3.01185,1.19068 4.58981,1.51687c3.23009,0.66772 6.82144,0.22341 9.73598,1.7677c1.49495,0.79211 2.39761,2.39482 3.70258,3.47156c1.53286,1.26477 3.70251,1.88182 4.79638,3.54096c0.76934,1.16691 0.23832,2.78613 0.29581,4.18265c0.05936,1.44186 -0.07315,8.15798 -0.1903,8.46422c-0.55059,1.43928 -2.3118,2.0819 -3.18186,3.35378c-0.47359,0.69231 -0.31253,1.68773 -0.75457,2.40059c-0.91213,1.47096 -2.30493,2.60003 -3.24674,4.05216c-3.5639,5.495 -6.35981,12.37467 -11.57285,16.70646c-1.16289,0.96631 -2.71231,1.33703 -4.06846,2.00554c-3.2194,-0.14469 -6.37076,-1.12933 -9.42234,-2.16536c-4.00259,-1.3589 -6.32075,-1.1975 -9.99065,-3.69963c-1.45203,-0.98999 -2.45045,-2.52304 -3.75227,-3.7036c-1.81965,-1.65015 -3.95623,-2.91364 -5.89906,-4.41681c-3.40509,-2.63453 -6.62624,-5.89802 -10.32433,-8.12302c-2.2316,-1.34267 -5.50094,-2.76785 -8.06459,-3.3976c-1.43274,-0.35195 -3.42604,0.43361 -4.37031,-0.69995c-4.11028,-4.93422 2.22532,-8.92251 4.14564,-12.0911c1.97572,-3.26001 2.4821,-7.94163 4.22435,-11.47106c0.10548,-0.40167 0.29214,-0.70989 0.51649,-0.94642c1.22537,-2.0307 3.00333,-3.69833 4.31812,-5.67812c2.45902,-3.54423 2.66334,-7.57949 4.27148,-11.57681c0.36837,-0.91565 1.13001,-1.66539 1.37808,-2.62068c0.51257,-1.97385 -0.63826,-4.19087 0.02916,-6.11788c0.57386,-1.65689 1.54723,-3.20437 2.73751,-4.49194c1.14021,-1.23341 2.93797,-1.71229 4.1101,-2.91541c1.20613,-1.23801 1.66034,-3.09795 2.91086,-4.29111c3.74056,-3.569 8.93908,-3.62881 13.66652,-3.62881c7.00701,0 14.01401,0 21.02102,0c0,0 2.5,0 2.5,2.5c0,2.5 -2.5,2.5 -2.5,2.5c-7.00701,0 -14.01401,0 -21.02102,0c-3.40583,0 -7.67242,-0.3428 -10.35751,2.3772c-1.12758,1.14224 -1.51772,2.87819 -2.63615,4.02939c-2.34465,2.41337 -4.61915,2.05193 -5.6234,5.29317c-0.58147,1.87672 0.49305,3.98495 0.02916,5.89413c-0.29554,1.21631 -1.16229,2.22226 -1.62493,3.38533c-1.73387,4.35897 -2.12831,8.48698 -4.73753,12.44722c-0.49281,0.7366 -1.05114,1.42911 -1.61985,2.11409z" fill="#000000" stroke="none" stroke-width="0.5"/><path d="M206.46396,88.65865c0,2.5 -2.5,2.5 -2.5,2.5l-2.61954,-0.26393c-3.34319,-1.77324 -5.49362,-1.23757 -9.39248,-1.23757c-5.01107,0 -10.02509,0.04159 -15.03597,-0.00009c-2.08503,-0.01734 -4.10988,-0.26266 -6.10875,-0.61292c-2.95747,2.82 -5.23055,6.55333 -7.90378,9.53702c-3.60587,4.02464 -6.51149,6.21888 -8.78336,11.19141c-1.87804,2.99049 -3.88916,5.94343 -6.33264,8.49284c-0.95591,0.99736 -2.37187,1.61624 -3.02387,2.83418c-0.42331,0.79074 0.29376,1.82224 0.06665,2.68993c-0.33004,1.26096 -1.12884,2.3498 -1.69327,3.5247l-1.9698,2.15123c0,0 -1.76777,1.76777 -3.53553,0c-1.76777,-1.76777 0,-3.53553 0,-3.53553l1.0332,-0.85177c0.43658,-0.8271 1.08155,-1.57432 1.30974,-2.48131c0.27924,-1.10991 -0.36397,-2.42046 0.17723,-3.42892c0.92397,-1.72172 2.66298,-2.86037 3.97502,-4.30834c2.09038,-2.30694 3.94804,-4.8356 5.6,-7.47429c0.75124,-1.58939 1.24658,-3.32726 2.25371,-4.76816c0.04296,-0.06147 6.92794,-7.0699 7.19881,-7.37228c2.09012,-2.33329 3.93368,-4.95816 5.98595,-7.37457c-2.16143,-0.4788 -4.33055,-0.94374 -6.55183,-1.23487c-3.2,-0.4194 -6.95202,0.01873 -10.20505,0.01873c0,0 -2.5,0 -2.5,-2.5c0,-2.5 2.5,-2.5 2.5,-2.5c3.46401,0 7.41264,-0.41805 10.81597,0.01873c3.35687,0.43082 6.67092,1.39226 10.01787,2.13355c0.07518,-0.06011 0.15082,-0.11974 0.22691,-0.17889c0.88362,-0.68682 2.09648,-0.84521 3.003,-1.5015c2.07227,-1.50027 2.55062,-4.64524 4.65195,-6.10453c0.70492,-0.48954 1.95387,0.97669 2.54956,0.35886c0.68069,-0.70598 -0.79236,-2.28984 -0.05946,-2.94147c1.11059,-0.98744 2.99682,-0.31816 4.36856,-0.8898c1.26469,-0.52704 2.32137,-1.46917 3.37981,-2.33918c8.28767,-6.81222 12.44842,-17.04435 10.63509,-27.57121c-2.91293,0.89189 -5.78104,0.2441 -8.80239,0.45973c-2.54462,0.1816 -4.96675,1.24156 -7.50459,1.50121c-6.52043,0.66711 -13.22289,-0.36939 -19.7643,0.31847c-10.13268,1.06549 -20.47489,4.81753 -30.76379,1.83095c-0.26282,-0.07629 -6.73942,-3.32398 -7.89626,-3.9024c0,0 -2.23607,-1.11803 -1.11803,-3.3541c1.11803,-2.23607 3.3541,-1.11803 3.3541,-1.11803c2.35747,1.17873 4.52277,2.83799 7.05402,3.57274c9.5439,2.77032 19.4604,-1.01469 28.84708,-2.00174c6.55021,-0.68878 13.26499,0.34792 19.78867,-0.32097c2.53972,-0.26041 4.96453,-1.31101 7.51042,-1.50179c4.05533,-0.30389 8.19392,0.03435 12.21863,0.45973c0.83581,2.04405 1.93909,3.99821 2.50744,6.13215c0.29199,1.09632 0.03228,2.26892 0.03228,3.40346c0,9.7427 -5.13566,19.94259 -12.92565,25.95624c-1.55431,1.19989 -3.1065,2.50686 -4.94069,3.20782c-0.73655,0.28148 -1.79663,-1.01522 -2.32595,-0.4308c-0.68587,0.75727 0.67256,2.35178 -0.05946,3.06453c-0.82992,0.80808 -2.4788,-0.2624 -3.45644,0.35886c-0.69413,0.4411 -0.29956,1.67628 -0.78772,2.33815c-0.58401,0.79182 -1.24997,1.52662 -1.96871,2.20585c8.85879,0.21605 18.66372,-2.18943 26.58416,1.60381l0.38347,-0.26393c0,0 2.5,0 2.5,2.5z" fill="#000000" stroke="none" stroke-width="0.5"/><path d="M274.03153,129.19919c0,2.5 -2.5,2.5 -2.5,2.5l-3.26927,-0.73223c-2.59649,-2.63281 -4.14859,-3.50679 -5.16986,-7.19939c-0.26683,-0.96478 0.24278,-2.03189 0,-3.003c-0.27143,-1.08574 -1.24203,-1.91434 -1.5015,-3.003c-0.27652,-1.16017 -0.13618,-2.38673 -0.06688,-3.57739c0.0335,-0.57551 0.70855,-1.21964 0.37337,-1.68868c-0.40252,-0.56328 -1.35536,-0.31345 -1.99441,-0.57976c-0.56695,-0.23627 -6.23003,-3.15174 -6.50174,-3.31489c-1.37358,-0.82479 -2.55378,-1.96949 -3.98912,-2.68139c-1.52889,-0.7583 -3.41103,-0.74778 -4.83163,-1.69352c-1.14838,-0.76452 -1.39355,-2.5295 -2.57693,-3.23863c-1.39333,-0.83495 -3.30686,-0.37361 -4.73683,-1.14414c-1.70209,-0.91717 -3.00188,-2.47298 -4.55433,-3.61944c-0.56629,0.59485 -0.86213,1.44861 -0.72293,2.94545c0,0 0,1.88175 -1.63257,2.3801c-0.34045,1.37278 -1.11533,2.63622 -1.40271,4.02636c-0.8709,4.21281 -0.39644,10.31349 1.46691,14.04018c0.041,2.19319 0.06688,4.38681 0.06688,6.58039v3.003c0,0 0,2.5 -2.5,2.5c-2.5,0 -2.5,-2.5 -2.5,-2.5v-3.003c0,-1.81068 0.01704,-3.62163 0.06688,-5.43162c-2.09487,-4.18973 -2.45502,-11.252 -1.5361,-15.98985c0.30136,-1.55377 1.23523,-2.94434 1.5015,-4.5045c0.92463,-5.41766 -0.46016,-11.38526 0.05849,-16.88486c0.31293,-3.31821 1.17084,-6.57179 1.45129,-9.8929c0.14613,-1.73047 -0.15581,-3.49626 0.1366,-5.2081c0.5562,-3.25611 2.41296,-6.21727 2.84792,-9.49178c0.56907,-4.28416 -0.02208,-9.35629 -0.02208,-13.67746c0,0 0,-2.5 2.5,-2.5c2.5,0 2.5,2.5 2.5,2.5c0,4.54193 0.58292,9.84709 -0.02208,14.34056c-0.44854,3.33138 -2.31487,6.35145 -2.87436,9.666c-0.26577,1.57446 0.04949,3.1983 -0.08356,4.78948c-0.16624,1.9882 -1.25416,7.83069 -1.4515,9.89532c-0.24047,2.51591 -0.1071,5.10518 0.03452,7.69714c0.58858,-0.74839 1.34292,-0.89223 1.94982,-0.84911c0.51613,-0.32571 1.01964,-0.66028 1.48838,-1.02095c3.6467,-2.80589 6.58943,-7.00854 10.78789,-9.18254c1.31154,-0.67913 3.02717,-0.4669 4.22713,-1.32797c2.89499,-2.0774 4.22478,-7.41547 6.23028,-9.98658c1.08973,-1.39706 2.74487,-2.24982 4.00079,-3.4996c5.85266,-5.82403 12.49908,-13.11796 16.22963,-20.48203l3.26334,-3.30899c0,0 1.76777,-1.76777 3.53553,0c1.76777,1.76777 0,3.53553 0,3.53553l-2.74266,2.69701c-3.72207,7.55152 -10.77661,15.1828 -16.76387,21.10753c-1.11004,1.09844 -2.61955,1.79117 -3.57862,3.02363c-2.73933,3.52017 -3.37959,8.08344 -7.25086,10.96971c-1.35402,1.0095 -3.27896,0.90451 -4.78188,1.67503c-3.71562,1.90494 -6.46232,5.70395 -9.62685,8.34805c0.70904,0.7904 1.24011,1.79444 2.16669,2.28983c1.5072,0.80581 3.49953,0.40114 4.9646,1.28122c1.23493,0.74184 1.54161,2.54051 2.73666,3.34502c1.21053,0.81492 2.86732,0.66666 4.17738,1.30948c1.55416,0.76259 2.84661,1.97544 4.33138,2.86561c2.43895,1.46223 8.67298,3.21008 10.21038,5.57336c1.85916,2.8579 -0.38075,4.14398 0.3065,6.74595c0.28579,1.08205 1.23007,1.91726 1.5015,3.003c0.24278,0.97111 -0.20967,2.02421 0,3.003c0.43301,2.02138 2.55358,3.54845 3.83915,4.81262l-0.26627,-0.73223c0,0 2.5,0 2.5,2.5z" fill="#000000" stroke="none" stroke-width="0.5"/><path d="M320.57808,121.69168c0,2.5 -2.5,2.5 -2.5,2.5h-3.003c-1.74216,-0.00223 -3.48838,0.06323 -5.22051,0.24993c-4.14536,1.02529 -7.11575,1.29406 -11.29601,1.25158c-1.19261,-0.01212 -2.46371,0.35996 -3.57739,-0.06688c-1.78608,-0.68455 -4.01929,-1.39801 -4.80033,-3.14405c-0.62599,-1.39945 1.18979,-2.85545 1.44009,-4.36795c0.96738,-5.84569 -2.4165,-14.18654 2.16686,-19.2114c1.10297,-1.20921 3.32675,-0.63793 4.63427,-1.62237c0.99051,-0.74576 0.79051,-2.55783 1.82518,-3.241c0.9362,-0.61815 2.3555,0.31524 3.36062,-0.18307c1.1032,-0.54693 1.52131,-1.97148 2.49794,-2.72141c0.8772,-0.67358 2.05526,-0.85714 2.97067,-1.4778c1.83816,-1.2463 2.68988,-3.53832 3.91849,-5.38835c0,0 1.38675,-2.08013 3.46688,-0.69338c2.08013,1.38675 0.69338,3.46688 0.69338,3.46688c-1.18764,1.77515 -3.09706,5.16724 -5.09052,6.62366c-0.9143,0.66799 -2.12297,0.85456 -3.03534,1.5252c-1.29073,0.94876 -2.07759,2.56359 -3.50807,3.2846c-0.78931,0.39784 -1.91287,-0.67776 -2.64538,-0.18307c-0.83022,0.56067 -0.37508,2.16567 -1.17782,2.76501c-1.2253,0.91483 -3.22268,0.37513 -4.37474,1.38063c-0.81316,0.70972 -0.65818,2.06743 -0.80155,3.13719c-0.36649,2.73447 0.05514,5.84605 0.03228,8.60855c-0.01401,1.69305 0.33235,3.43352 -0.06688,5.07889c-0.17795,0.7334 -1.38774,0.90398 -1.56292,1.63805c-0.09392,0.39358 0.8017,-0.11794 1.20568,-0.14105c0.80852,-0.04626 1.61883,-0.05691 2.42862,-0.06688c3.98737,-0.0491 6.40882,-0.16033 10.41743,-1.17378c2.02388,-0.22151 4.06313,-0.32534 6.09909,-0.32772h3.003c0,0 2.5,0 2.5,2.5z" fill="#000000" stroke="none" stroke-width="0.5"/><path d="M349.60961,119.68718c-2.5,0 -2.5,-2.5 -2.5,-2.5l0.1903,-2.04629c-1.001,-1.001 -2.41286,-1.71625 -3.003,-3.003c-0.55087,-1.20113 -0.15403,-2.63878 -0.1903,-3.95971c-0.00236,-0.08582 -0.00468,-0.17155 -0.00695,-0.25719c-0.47905,0.34551 -0.92918,0.71358 -1.18936,1.2139c-0.59244,1.13929 0.4036,2.94519 -0.54193,3.81406c-1.08633,0.99826 -2.93757,0.348 -4.37031,0.69995c-5.91877,1.45393 -8.96954,4.87902 -15.032,1.26985c-1.48287,-0.8828 -3.79747,-1.28346 -4.25668,-2.947c-1.01187,-3.66568 2.22999,-5.66309 4.37922,-7.29808c2.22113,-1.68969 4.81081,-2.8522 7.04123,-4.52961c2.25457,-1.69557 4.16602,-4.1888 6.8934,-4.90952c2.60465,-0.68829 5.38783,-0.06688 8.08189,-0.06688c0,0 2.5,0 2.5,2.5c0,0.46582 -0.0868,0.84485 -0.22804,1.15325l1.08017,1.62025l-0.07611,0.05074c0.12639,0.17221 0.24747,0.34871 0.36252,0.53009c0.39773,0.62698 0.40239,6.08423 0.36297,7.15618c-0.02518,0.68458 -0.52367,1.44784 -0.1903,2.04629c0.6889,1.2367 2.002,2.002 3.003,3.003l0.1903,3.95971c0,0 0,2.5 -2.5,2.5zM338.17198,100.10078c-2.4523,0.55563 -3.19393,2.65975 -5.11861,4.09949c-0.94315,0.70551 -2.15943,0.9635 -3.15045,1.60002c-1.33936,0.86026 -2.53282,1.92908 -3.81433,2.87337c-0.51906,0.38248 -1.04638,0.75446 -1.58663,1.10637c-0.33905,0.22085 -1.34223,0.33156 -1.04917,0.61056c0.42254,0.40227 1.1942,-0.12344 1.74933,0.056c0.88298,0.28542 1.57112,1.03584 2.45935,1.30445c1.9807,0.59897 2.68128,-0.66879 4.47492,-1.37808c1.65091,-0.65285 3.30341,-1.4077 5.06076,-1.65952c0.58706,-0.08412 1.28506,1.17825 1.63569,0.69995c0.44499,-0.60701 -0.86416,-1.51176 -0.54193,-2.19194c0.60607,-1.27933 2.44448,-1.70221 3.003,-3.003c0.46725,-1.08823 -0.12687,-2.3652 -0.1903,-3.5478l0,-0.75875c-0.9891,-0.04878 -1.97071,-0.02885 -2.93162,0.18887z" fill="#000000" stroke="none" stroke-width="0.5"/><path d="M380.37421,82.26918c-1.11803,2.23607 -3.3541,1.11803 -3.3541,1.11803l-3.65274,-1.9698c-0.98031,-1.81786 -1.65827,-3.78403 -2.54956,-5.64715c-0.31804,-0.6648 -0.66379,1.31704 -0.95411,1.99441c-1.01509,2.36839 -3.24911,4.01669 -4.61395,6.2023c-1.86739,2.99039 -0.78606,4.33025 -1.45517,7.55637c-0.63757,3.07403 -1.60756,6.21128 -2.67596,9.29135v4.36048c0,1.38071 -1.11929,2.5 -2.5,2.5c-1.38071,0 -2.5,-1.11929 -2.5,-2.5c0,-0.5005 0,-4.004 0,-4.5045c0,-3.5035 0,-7.00701 0,-10.51051c0,0 0,-2.5 2.5,-2.5c0.14792,0 0.28709,0.00875 0.41802,0.02522c0.01904,-0.34297 0.05691,-0.68315 0.13336,-1.01767c1.16046,-5.07785 3.87663,-6.93043 6.22156,-11.1391c0.76036,-1.3647 1.02484,-3.31515 2.42324,-4.0116c1.68036,-0.83687 3.9513,-0.83687 5.63166,0c1.00207,0.49906 2.81747,4.9095 3.45644,6.36487l2.35327,1.0332c0,0 2.23607,1.11803 1.11803,3.3541z" fill="#000000" stroke="none" stroke-width="0.5"/><path d="M415.67568,122.69018c-2.5,0 -2.5,-2.5 -2.5,-2.5l0.73223,0.26627c-2.88104,-2.92981 -7.41719,-4.47226 -9.48168,-8.19122c-0.36602,0.85772 -1.06187,1.59435 -1.33245,2.49333c-0.40818,1.35617 0.38388,3.24511 -0.66536,4.19639c-0.86826,0.7872 -5.6185,0.76955 -7.27828,0.73223c-1.98608,-0.04465 -4.11404,0.55205 -5.95671,-0.1903c-2.82935,-1.13986 -7.47674,-8.11025 -7.5493,-11.31871c-0.03007,-1.32983 1.25409,-2.37311 1.58946,-3.66031c0.2947,-1.13113 -0.18768,-2.42245 0.27501,-3.49586c0.82911,-1.92353 1.9768,-3.77556 3.48553,-5.22853c1.77182,-1.70634 4.69695,-1.47496 7.08613,-2.06043c1.41924,-0.34778 2.74994,-0.96358 4.08039,-1.5846v-1.98828c0,-1.38071 1.11929,-2.5 2.5,-2.5c1.38018,0 2.49914,1.11843 2.5,2.49841c0,0.00007 0,0.00014 0,0.0002l0.00042,0.66175c0.54136,0.20429 1.07173,0.64888 1.37279,1.55207c0.25153,0.75459 0.18295,1.34913 -0.02751,1.80907c1.17904,2.20059 1.13881,5.52501 1.59042,7.41613c0.5199,2.17709 2.44912,3.83731 3.003,6.00601c0.21641,0.84733 -0.47984,1.82207 -0.12342,2.62068c0.85609,1.91822 3.76608,2.3823 5.15808,3.43311c1.23642,0.93335 2.206,2.17556 3.30899,3.26334l0.73223,3.26927c0,0 0,2.5 -2.5,2.5zM398.23872,97.52535c-0.98134,0.42489 -1.97518,0.81079 -3.00968,1.07393c-2.23746,0.56912 -3.15913,-0.84644 -4.92588,0.94257c-0.87041,0.88138 -1.64504,1.92535 -2.06147,3.09198c-0.35903,1.00582 0.1117,2.17242 -0.184,3.19865c-0.25276,0.8772 -1.3756,1.43359 -1.41354,2.34569c-0.03124,0.75099 0.87182,1.22832 1.23757,1.88497c0.60047,1.07806 1.72686,4.32165 3.22515,4.81434c1.28173,0.42148 2.6946,-0.15112 4.04329,-0.1903c0.83548,-0.02427 1.68722,-0.16048 2.50751,0c0.46975,0.0919 1.01143,1.15534 1.23524,0.73223c0.3005,-0.56811 -0.77537,-1.17642 -0.66536,-1.80962c0.19157,-1.10263 1.20552,-1.9237 1.5015,-3.003c0.89602,-3.26741 -1.01554,-8.90428 -1.4732,-12.12963c-0.00571,-0.31727 -0.01141,-0.63454 -0.01712,-0.95181z" fill="#000000" stroke="none" stroke-width="0.5"/><path d="M451.71171,103.17066c-1.41869,0 -2.03231,-0.80507 -2.29771,-1.5015c-1.90427,0 -3.80853,0 -5.7128,0c0,3.83634 0,7.67267 0,11.50901c0,1.70339 -0.37713,3.44194 -0.03228,5.11005c0.32042,1.54995 1.22718,2.94574 1.5015,4.5045c0.1223,0.69492 -0.63007,1.44542 -0.34109,2.08913c0.20483,0.45626 0.95149,0.3534 1.45076,0.38271c2.30718,0.13542 4.62198,-0.06688 6.93313,-0.06688h1.5015c0,0 2.5,0 2.5,2.5c0,2.5 -2.5,2.5 -2.5,2.5h-1.5015c-4.09245,0 -9.67475,1.26795 -12.63714,-2.68717c-0.78567,-1.04896 -0.06097,-2.6366 -0.34109,-3.91688c-0.57392,-2.62306 -1.51912,-5.22289 -1.53378,-7.90796c-0.02551,-4.67189 -0.02835,-9.34417 -0.02362,-14.01652c-2.1618,0 -4.32359,0 -6.48539,0c0,0 -2.5,0 -2.5,-2.5c0,-2.5 2.5,-2.5 2.5,-2.5c2.16422,0 4.32843,0 6.49265,0c0.00732,-4.1718 0.01636,-8.34355 0.01636,-12.51502c0,0 0,-2.5 2.5,-2.5c2.5,0 2.5,2.5 2.5,2.5c0,4.17167 0,8.34334 0,12.51502c2.67017,0 5.34034,0 8.01051,0l2.5,4.0015c0,0 0,2.5 -2.5,2.5z" fill="#000000" stroke="none" stroke-width="0.5"/><path d="M104.36186,217.78778c0,2.5 -2.5,2.5 -2.5,2.5l-3.57739,-0.06688c-3.78225,-1.89113 -5.59999,-1.43462 -9.93613,-1.43462c-5.69804,0 -11.39326,0.00148 -17.0909,-0.06688c-6.40652,-3.07507 -13.33348,-4.93992 -19.90185,-7.63093c-2.43791,-0.9988 -4.10327,-3.33413 -6.36363,-4.68758c-1.36905,-0.81975 -3.15201,-0.73285 -4.53844,-1.52285c-1.77916,-1.01378 -5.17779,-6.41075 -5.54898,-7.38682c-0.8951,-2.35373 -0.10727,-7.16836 -0.10727,-9.73347c0,-6.62086 -0.15434,-12.53619 -1.45295,-19.02923c0,0 -0.49029,-2.45145 1.96116,-2.94174c2.45145,-0.49029 2.94174,1.96116 2.94174,1.96116c1.3611,6.80551 1.55005,13.07509 1.55005,20.00981c0,2.01871 -0.84416,6.43261 -0.10727,8.28455c2.03959,5.12587 3.79831,3.62105 7.93061,6.10534c1.26298,0.75929 1.98005,2.20608 3.15045,3.10152c1.46334,1.11956 5.67113,2.23053 6.90563,2.68365c4.87859,1.79066 10.14617,3.51021 14.7295,5.92035c5.3144,-0.08031 10.62711,-0.06688 15.94213,-0.06688c4.35114,0 7.19666,-0.37574 11.08489,1.56838l2.42862,-0.06688c0,0 2.5,0 2.5,2.5z" fill="#000000" stroke="none" stroke-width="0.5"/><path d="M180.93844,232.80279c0,2.5 -2.5,2.5 -2.5,2.5l-2.29207,-0.12829c-8.48743,-2.82915 -18.86042,-5.91386 -25.15283,-12.78185c-0.83491,-0.91128 -1.06982,-2.23259 -1.70875,-3.29054c-1.31133,-2.17132 -3.25321,-3.91858 -4.55676,-6.09458c-1.43826,-2.40087 -1.99618,-5.23269 -3.14294,-7.78567c-0.31427,-0.69965 -3.24321,-6.41443 -4.26924,-8.59122c-0.67639,0.68505 -1.34401,1.37762 -1.92545,2.14062c-2.70161,3.54521 -5.73477,6.9748 -10.43162,7.93613c-0.39114,0.08006 -6.74903,0.06688 -8.08189,0.06688c-4.088,0 -8.6826,0.53935 -12.70424,-0.1239c-1.70833,-0.28174 -3.2795,-1.12426 -4.95848,-1.5471c-1.80634,-0.45491 -3.86958,-0.15035 -5.4824,-1.08234c-1.93603,-1.11876 -3.12674,-3.19731 -4.69011,-4.79596c-0.04597,-0.95662 -0.4615,-6.9628 0,-7.91942c0.75996,-1.57531 2.35113,-2.5912 3.57351,-3.84218c3.10372,-3.17633 8.6812,-7.16852 13.17682,-8.14474c2.33836,-0.50777 6.84656,0.34237 9.18294,-0.0346c1.55014,-0.25011 2.92693,-1.18907 4.467,-1.49512c2.76608,-0.54968 5.66972,0.16889 8.45635,-0.26472c2.349,-0.36551 4.65571,-1.11682 6.94856,-1.9239l-0.75057,-1.87643c-0.12865,-0.30123 -0.19986,-0.63286 -0.19986,-0.98112c0,-1.38071 1.11929,-2.5 2.5,-2.5c0.99801,0 1.85943,0.58479 2.26029,1.43041l1.11308,2.22616c0.67585,-0.21192 1.35228,-0.40804 2.03001,-0.57985c4.07183,-1.03227 8.42728,-1.56411 12.61464,-1.57522c0,0 2.5,0 2.5,2.5c0,2.5 -2.5,2.5 -2.5,2.5c-4.3907,-0.01337 -8.44377,0.97883 -12.44684,2.16871c0.51805,1.65336 0.5231,3.58495 0.35989,5.57979c0.02514,1.78363 -0.15192,3.55561 -0.57952,5.19316c-0.18477,1.83357 -0.2531,3.5574 0.08477,4.99077c0.72871,3.09149 3.01192,5.59912 4.31336,8.49645c1.08537,2.41631 1.56759,5.1171 2.93971,7.3829c1.27865,2.11145 3.18826,3.79717 4.45225,5.91743c0.51345,0.86128 0.61665,1.97636 1.29425,2.71546c5.5873,6.09442 15.39198,8.7411 22.89521,11.24217l0.71093,-0.12829c0,0 2.5,0 2.5,2.5zM136.68877,189.51457c0.21478,-2.96952 0.64711,-5.98479 0.25573,-8.79156c-0.01206,-0.08647 -0.03054,-0.17115 -0.05417,-0.25441c-2.6805,0.81005 -5.39301,1.55572 -8.2233,1.99612c-2.75118,0.42809 -5.623,-0.31887 -8.34921,0.24686c-1.56198,0.32413 -2.96555,1.26368 -4.54201,1.50788c-2.91034,0.45083 -5.95288,-0.63978 -8.83508,-0.0346c-2.78701,0.58519 -7.07054,3.71585 -9.18687,5.3019c-1.47746,1.10727 -3.22493,2.10256 -4.09283,3.73219c-0.64126,1.20408 0.12632,2.73425 0,4.09259c0.79365,0.75837 1.37444,1.83702 2.38096,2.27511c1.34916,0.58722 2.93313,0.31989 4.36449,0.66086c1.55835,0.37122 2.99656,1.20052 4.57588,1.46885c4.71341,0.80083 10.09451,0.01156 14.89749,0.05789c2.99672,0.02891 6.49236,-0.17389 8.90864,-2.42238c0.35087,-0.3265 3.39836,-4.81537 4.21774,-5.72463c1.197,-1.3283 2.91973,-2.40848 3.68251,-4.11269z" fill="#000000" stroke="none" stroke-width="0.5"/><path d="M235.9985,195.26526c0,-2.5 2.5,-2.5 2.5,-2.5h3.003c2.87473,0 6.80354,-0.59568 9.58339,0.06688c1.08866,0.25947 1.90665,1.27674 3.003,1.5015c1.58402,0.32474 3.30129,-0.35755 4.84967,0.10838c1.0367,0.31196 1.61114,1.45131 2.47997,2.09722c1.45411,1.08103 3.25864,1.73973 4.48068,3.07752c3.80651,4.16704 1.83834,11.08462 0.54205,15.80969c-0.48312,1.76101 -0.85524,3.60914 -1.79112,5.17716c-0.82372,1.38011 -2.23546,2.30994 -3.36186,3.45644c-3.06974,3.12452 -6.20015,6.19147 -9.31579,9.26992c-2.66794,1.34724 -6.65302,3.7229 -9.72516,3.21057c-4.42357,-0.7377 -5.21069,-3.96391 -8.21261,-6.21415c-3.16258,-2.37067 -4.75882,-0.63233 -6.85393,-5.5759c-1.02796,-2.42556 -0.1903,-8.56296 -0.1903,-11.46722c0,-8.50851 0,-17.01702 0,-25.52553c0,-2.31115 0.65707,-4.6986 0.06688,-6.93313c-0.28579,-1.08205 -1.28204,-1.90558 -1.5015,-3.003c-0.46206,-2.3106 -0.51233,-3.33982 -0.18706,-4.29296c-1.38132,-0.60407 -1.38132,-2.28743 -1.38132,-2.28743v-3.003c0,0 0,0 0,0c0,-1.38071 1.11929,-2.5 2.5,-2.5c1.1246,0 2.07576,0.74256 2.38994,1.76412l1.48327,4.44981l-0.06005,0.02002c0.05441,0.12211 0.1065,0.24544 0.15606,0.3701c0.53339,1.34142 -0.31774,2.91505 -0.0346,4.33058c0.21951,1.09741 1.24203,1.91434 1.5015,3.003c0.62461,2.62065 0.06688,5.38783 0.06688,8.08189c0,7.5025 0,15.00501 0,22.50751c0,3.00235 0.08718,6.02307 0,9.02402c-0.03439,1.1838 -0.59004,2.433 -0.1903,3.5478c0.62323,1.73808 4.03622,2.59128 5.15808,3.43311c0.76591,0.57473 4.7061,5.10218 6.1139,5.33886c1.12189,0.18861 4.81916,-1.76815 5.97836,-2.33643c2.88724,-2.92826 5.7641,-5.87062 8.70222,-8.7481c0.87474,-0.85669 2.01093,-1.50165 2.64414,-2.54956c0.69283,-1.14657 0.88534,-2.53261 1.21188,-3.83185c0.48926,-1.94669 1.99946,-6.91408 1.48463,-9.29446c-0.59693,-2.75999 -2.50704,-2.66524 -4.7824,-4.39236c-0.48454,-0.36779 -0.61921,-1.22622 -1.21154,-1.36478c-1.35046,-0.31591 -2.79793,0.37318 -4.15934,0.10838c-1.09857,-0.21368 -1.92096,-1.21571 -3.003,-1.5015c-2.32563,-0.61426 -6.01918,0.06688 -8.43463,0.06688h-3.003c0,0 -2.5,0 -2.5,-2.5z" fill="#000000" stroke="none" stroke-width="0.5"/><path d="M328.58859,183.75625c2.5,0 2.5,2.5 2.5,2.5v3.003c0,2.44706 0.82014,8.26912 -0.37337,10.32334c-0.57459,0.98896 -2.39999,0.63187 -3.04923,1.57351c-0.52363,0.75945 0.40568,1.91295 0.05663,2.76684c-1.58798,3.88477 -3.11037,4.85223 -5.83334,7.31404c-0.06102,1.12021 0.45446,2.43751 -0.18307,3.36062c-0.81168,1.17526 -2.53421,1.34642 -3.66785,2.21528c-1.27143,0.97447 -2.06793,2.58308 -3.50807,3.2846c-1.06766,0.52007 -2.39605,-0.08137 -3.55926,0.15802c-1.55023,0.31904 -2.9424,1.24687 -4.5045,1.5015c-1.61372,0.26304 -3.26995,0.02561 -4.90496,0.03228c-1.41512,0.00578 -6.53197,0.0896 -7.41453,-0.43456c-1.02367,-0.60797 -0.92486,-2.22408 -1.65216,-3.16671c-0.91416,-1.1848 -2.14705,-2.08521 -3.21158,-3.13697c-0.35618,-0.3519 -6.10419,-6.09496 -6.26634,-6.312c-2.31026,-3.09212 -3.65671,-7.61478 -4.84811,-11.18172c-1.74952,-5.23792 -3.09021,-8.71405 -3.13129,-14.30408c0,0 0,-2.5 2.5,-2.5c2.5,0 2.5,2.5 2.5,2.5c-0.0441,5.01784 1.29734,7.98092 2.87471,12.72294c1.01373,3.04757 2.15995,7.18392 4.1609,9.8393c1.62356,2.15456 3.84838,3.7821 5.74567,5.70001c1.29195,1.30599 2.78005,2.44764 3.85948,3.9341c0.35199,0.48471 -0.20209,1.42663 0.28578,1.77423c0.44865,0.31966 1.04605,-0.38272 1.59448,-0.43456c0.99656,-0.0942 2.00201,-0.00455 3.003,0c2.91098,0.01322 5.75044,-0.91683 8.60855,-1.46922c0.80243,-0.15509 1.72117,0.53417 2.44675,0.15802c1.09317,-0.56672 1.50132,-1.99825 2.49794,-2.72141c0.66565,-0.48301 1.9009,-0.09117 2.33815,-0.78772c0.46994,-0.74863 -0.12205,-1.76359 -0.18307,-2.64538c1.34191,-1.44195 4.90141,-4.91841 5.71967,-7.01247c0.48058,-1.2299 -0.20258,-2.81962 0.51564,-3.92767c0.59544,-0.91864 2.25835,-0.5865 2.95678,-1.42949c0.36779,-0.44392 -0.32764,-1.11401 -0.37337,-1.68868c-0.15882,-1.99569 0,-4.004 0,-6.00601v-3.003c0,0 0,-2.5 2.5,-2.5z" fill="#000000" stroke="none" stroke-width="0.5"/><path d="M350.11261,207.27727c0,-2.5 2.5,-2.5 2.5,-2.5l0.71093,0.12829c3.80597,-1.26284 7.54796,-3.83068 11.70154,-3.09901c1.69022,0.29774 3.28866,0.99223 4.89462,1.59751c1.94256,0.73215 4.35017,0.87122 5.74204,2.41143c1.0034,1.11034 0.39327,2.9703 0.47189,4.46478c0.13148,2.49905 0.08756,5.00654 0,7.50751c-0.04778,1.36474 0.42622,2.90182 -0.24829,4.08919c-1.17923,2.07585 -6.67135,5.18051 -8.56922,6.36604c-4.90153,2.4515 -10.56536,5.95582 -16.20501,5.55829c-2.09975,-0.14801 -4.61704,0.56818 -6.27227,-0.73223c-1.26514,-0.99394 -0.59852,-3.16746 -0.73223,-4.77077c-0.24958,-2.99261 0,-6.00601 0,-9.00901c0,-8.98811 -0.66518,-18.27479 0.00852,-27.23323c0.48693,-6.47496 2.59133,-12.50354 4.62428,-18.60239c0,0 0.79057,-2.37171 3.16228,-1.58114c2.37171,0.79057 1.58114,3.16228 1.58114,3.16228c-1.9054,5.71619 -3.93254,11.36279 -4.38473,17.43365c-0.54624,7.33355 0.00852,14.95803 0.00852,22.31632c0,3.16817 0,6.33634 0,9.5045c0,1.33634 0.18479,2.68551 0,4.00901c-0.06619,0.47405 -1.19649,1.11874 -0.73223,1.23524c0.91594,0.22984 1.80034,-0.61007 2.73674,-0.73223c5.01975,-0.65487 9.15818,-2.61956 13.76028,-4.91985c2.18749,-1.36491 5.1437,-1.99055 6.51053,-4.17684c0.34154,-0.5463 -0.21582,-1.27336 -0.24829,-1.91682c-0.05045,-0.99973 0,-2.002 0,-3.003c0,-1.5015 -0.11684,-3.00756 0,-4.5045c0.04181,-0.53565 0.89903,-1.2153 0.47189,-1.54123c-0.87981,-0.67135 -2.19868,-0.30254 -3.26697,-0.59157c-1.39898,-0.3785 -2.70337,-1.07469 -4.11439,-1.40549c-2.53088,-0.59335 -7.16435,2.18556 -9.31949,2.90699l-2.29207,0.12829c0,0 -2.5,0 -2.5,-2.5z" fill="#000000" stroke="none" stroke-width="0.5"/><path d="M463.72372,189.76225c2.5,0 2.5,2.5 2.5,2.5l-0.05147,3.50771c-1.19992,2.85727 -2.34624,5.77424 -2.97026,8.80976c-0.30351,1.47644 0.29743,3.34727 -0.7135,4.46531c-0.86124,0.95249 -2.6694,-0.04006 -3.81406,0.54193c-2.05005,1.04233 -3.2471,3.27996 -5.08188,4.66659c-7.94545,2.70068 -16.36135,6.27904 -24.68112,7.59306c-1.65642,0.26161 -3.36631,-0.02948 -5.02664,0.2061c-4.84454,0.68738 -9.04022,1.99647 -13.89327,-0.55925c-3.80074,-2.00155 -5.31976,-6.52839 -7.06243,-10.09516c-0.57543,-1.17775 -1.38326,-2.27434 -1.69856,-3.54665c-1.13538,-4.5816 -0.06688,-10.8556 -0.06688,-15.5894c0,0 0,-2.5 2.5,-2.5c2.5,0 2.5,2.5 2.5,2.5c0,3.003 0,6.00601 0,9.00901c0,1.81068 -0.51129,3.67633 -0.06688,5.43162c0.50241,1.98435 1.89989,3.62684 2.80595,5.46235c0.78342,1.58707 1.63302,4.06652 3.44808,4.91985c4.0163,1.88823 6.86932,0.59357 10.82317,0.0184c1.63913,-0.23844 3.3283,0.05616 4.96524,-0.19689c7.78423,-1.20332 15.63643,-4.64562 23.107,-7.06834c1.9247,-1.52009 3.31344,-3.78936 5.51478,-4.87069c0.67555,-0.33184 1.56827,0.96325 2.19194,0.54193c0.46898,-0.31682 -0.7636,-0.97695 -0.7135,-1.54069c0.32832,-3.69461 1.60711,-5.98153 3.03575,-9.20825l-0.05147,-2.4983c0,0 0,-2.5 2.5,-2.5z" fill="#000000" stroke="none" stroke-width="0.5"/><path d="M66.82432,309.37937c0,2.5 -2.5,2.5 -2.5,2.5l-3.40346,-0.03228c-3.4174,-1.12063 -6.69987,-2.87437 -10.20195,-3.54019c-2.11532,-0.61569 -4.73343,-0.34593 -6.34597,-1.84706c-1.12788,-1.04995 -0.45913,-3.05079 -0.56664,-4.58798c-0.29938,-4.28037 0.69791,-8.88922 0.03228,-13.11306c-0.16408,-1.04121 -0.42585,-2.0522 -0.73217,-3.04725c-0.79433,0.23939 -1.59519,0.44772 -2.40567,0.61c-2.39697,0.47997 -4.93974,-0.52994 -7.33358,-0.0346c-1.09594,0.22677 -1.91434,1.24203 -3.003,1.5015c-1.16017,0.27652 -2.38492,0.04459 -3.57739,0.06688c0,0 -2.5,0 -2.5,-2.5c0,-2.5 2.5,-2.5 2.5,-2.5c1.87192,0.05155 3.59329,-1.07788 5.43162,-1.43462c2.51361,-0.48779 5.17502,0.48891 7.68143,-0.0346c0.53991,-0.11277 1.07581,-0.2464 1.60861,-0.39616c-0.82979,-2.6025 -1.37357,-5.25388 -0.63827,-8.22101c0.94078,-3.79631 3.95481,-8.13071 6.97735,-10.46273c0.88608,-0.68365 2.10092,-0.83911 3.003,-1.5015c1.80575,-1.32594 2.56276,-3.77254 4.3503,-5.12294c7.86186,-5.93928 14.94454,-4.53132 23.5919,-1.91308c1.67046,0.84384 3.51087,1.41305 5.01138,2.53152c1.49831,1.11684 3.11515,2.35658 3.85093,4.0744c2.75006,6.42062 -5.95191,10.58649 -10.33244,12.85154c-1.51001,0.78078 -3.19788,1.17073 -4.72833,1.91064c-1.11018,0.53673 -8.02872,4.72836 -8.93268,5.06614c-0.39978,0.14939 -8.96983,1.50626 -9.24516,1.57269c-2.29643,0.55408 -4.52479,1.44026 -6.75755,2.30863c0.48181,1.28975 0.90983,2.57684 1.11513,3.87365c0.04224,0.26685 0.03228,9.89615 0.03228,10.40046c0,1.17117 0.13369,2.35 0,3.51351c-0.0581,0.50569 -1.01648,1.17981 -0.56664,1.41803c1.01974,0.54002 2.30656,0.07607 3.45984,0.1141c3.5448,0.73629 6.58132,2.33679 10.02228,3.50766l2.60255,-0.03228c0,0 2.5,0 2.5,2.5zM45.99086,279.43274c2.38821,-0.92936 4.7659,-1.91606 7.22032,-2.50968c2.87987,-0.69651 6.0009,-0.38389 8.77286,-1.43031c3.03458,-1.14556 5.51304,-3.44257 8.43218,-4.85664c3.54209,-1.71583 7.16668,-3.13032 10.46434,-5.32689c0.05708,-0.03802 3.04679,-1.77111 2.15508,-3.02119c-1.43846,-2.01657 -4.0256,-2.85458 -6.08797,-3.87222c-6.78108,-2.02598 -12.22623,-3.59821 -18.45014,1.02518c-1.92375,1.42904 -2.81865,3.96573 -4.72345,5.41994c-0.88955,0.67912 -2.09648,0.84521 -3.003,1.5015c-2.1009,1.521 -4.38849,5.00315 -5.03466,7.55529c-0.47899,1.89185 -0.25042,3.71968 0.25444,5.51502z" fill="#000000" stroke="none" stroke-width="0.5"/><path d="M160.42042,374.94243c-2.5,0 -2.5,-2.5 -2.5,-2.5v-1.5015c0.06343,-1.3199 -0.37448,-2.76506 0.1903,-3.95971c0.71626,-1.51509 2.28178,-2.45512 3.42267,-3.68268c3.34754,-4.46976 6.07136,-9.39501 9.31323,-14.00393c1.76856,-2.51434 4.29215,-4.67872 5.20167,-7.61513c0.43585,-1.40715 -0.37522,-2.99256 -0.00856,-4.41931c0.22918,-0.89179 4.11535,-8.16755 4.59351,-9.31798c1.4904,-3.58585 2.40804,-7.8113 4.7861,-11.01558c0.84366,-1.13677 2.1501,-1.87316 3.003,-3.003c0.75288,-0.99734 0.88246,-2.42119 1.76184,-3.30899c0.78758,-0.79512 2.20737,-0.71443 3.003,-1.5015c0.70355,-0.69598 0.65014,-1.90325 1.24116,-2.69701c0.38184,-0.51282 0.795,-1.00604 1.21515,-1.49477c-0.86604,-1.53744 -1.69109,-3.10064 -2.68932,-4.5535c-1.98413,-2.88779 -6.71639,-4.55722 -9.66013,-6.03583c-10.40157,-5.22461 -22.43343,-3.43807 -33.78459,-3.50592c-5.57437,-1.81937 -13.46807,-5.62428 -18.8528,-0.69995c-1.41884,1.29753 -0.78215,4.50023 -0.76927,5.73974c0.01484,1.42818 -0.02696,7.87343 -0.03228,7.90796c-0.24354,1.57989 -2.63423,7.36918 -3.003,9.00901c-0.54907,2.44153 0.37071,5.03262 0,7.50751c-0.03773,0.2519 -3.0116,9.1369 -3.01938,9.16021c-1.82066,5.46004 -3.86503,10.85631 -5.91408,16.24529c-0.01607,0.46409 -0.03023,0.89074 -0.04327,1.25472v2.96935c0,1.38071 -1.11929,2.5 -2.5,2.5c-1.38071,0 -2.5,-1.11929 -2.5,-2.5l0,-4.5045l0.05071,0c0.00282,-0.08111 0.00569,-0.16299 0.00861,-0.24555c-0.01187,-0.05023 -0.02095,-0.10183 -0.02704,-0.1549c-0.00953,-0.08305 0.00774,-0.2213 0.04736,-0.40488c0.07874,-2.10917 0.1969,-4.52348 0.43424,-5.95056c0.54175,-3.25733 2.08946,-6.30785 2.50943,-9.5831c0.78024,-6.08496 -0.05572,-12.7827 0.12751,-18.92836c0.10109,-3.39053 0.9034,-6.72369 1.37242,-10.08314c0.58692,-4.20396 -0.01873,-8.96003 -0.01873,-13.20806c0,0 0,-2.5 2.5,-2.5c2.5,0 2.5,2.5 2.5,2.5c0,4.46278 0.57523,9.39768 -0.01873,13.81897c-0.4308,3.20678 -1.24988,6.37983 -1.33698,9.61425c-0.10826,4.02035 0.17947,8.26829 0.19493,12.438c0.30097,-1.09702 0.54169,-2.18107 0.69756,-3.23864c0.36491,-2.47575 -0.52035,-5.0597 0,-7.50751c0.65819,-3.09626 2.52538,-5.87981 3.003,-9.00901c0.58996,-3.86521 -0.88524,-8.36645 0.0346,-12.18594c1.58299,-6.57313 10.5043,-8.81443 16.34709,-7.89934c0.51615,0.08084 8.13135,2.70319 9.00901,3.003c9.47999,-0.06653 21.36855,-1.89556 30.44092,1.60454c4.70117,1.8137 9.83939,4.58434 13.84513,7.63996c1.81866,1.38729 3.09545,3.35338 4.27152,5.38186c0.36641,-0.54365 1.43676,-1.76835 3.21107,-0.88119c2.23607,1.11803 1.11803,3.3541 1.11803,3.3541c-0.41986,0.82199 -0.92881,1.58897 -1.48115,2.32901c0.29321,0.64161 0.7045,2.08814 -0.86966,3.13758c-0.76849,0.51233 -1.44234,0.55146 -1.98659,0.39712c-0.12672,0.16098 -0.2519,0.32289 -0.37505,0.48603c-0.75288,0.99734 -0.88246,2.42119 -1.76184,3.30899c-0.78758,0.79512 -2.20737,0.71443 -3.003,1.5015c-0.70355,0.69598 -0.65014,1.90325 -1.24116,2.69701c-0.84544,1.13545 -2.14729,1.87528 -3.003,3.003c-1.03459,1.36345 -1.75228,3.02514 -2.36696,4.73313c0.41033,-0.78415 1.06341,-1.55808 2.02753,-2.31553c0.6218,-0.48851 7.52339,-0.37337 8.32634,-0.37337c3.10763,0 7.75065,-0.6931 11.50901,0.11973c0,-0.70808 0,-1.41616 0,-2.12423c0,-1.31347 -0.08625,-6.52823 0.37337,-7.32033c0.56168,-0.968 2.37491,-0.57522 3.003,-1.5015c0.65008,-0.95872 -0.5112,-2.69176 0.35886,-3.45644c1.10817,-0.97395 2.9384,-0.34463 4.37031,-0.69995c2.86819,-0.71173 5.67959,-1.67851 8.4037,-2.82405c9.78663,-4.11544 18.19437,-12.74581 26.49794,-19.20414c0,0 1.97338,-1.53485 3.50823,0.43853c1.53485,1.97338 -0.43853,3.50823 -0.43853,3.50823c-7.92066,6.16051 -15.5824,13.20991 -24.35955,18.07447c-3.72492,2.06447 -8.56013,4.35814 -12.81088,4.94239c-0.58753,0.08075 -1.29877,-1.18801 -1.63569,-0.69995c-0.48757,0.70629 0.82795,1.83087 0.35886,2.54956c-0.61171,0.93719 -2.29116,0.63792 -3.003,1.5015c-0.36668,0.44484 0.32764,1.11401 0.37337,1.68868c0.07941,0.99785 0,2.002 0,3.003c0,2.67406 0,5.34813 0,8.02219c0.66319,0.34147 1.74789,0.15057 2.27077,0.72055c2.525,2.75249 2.77308,6.35474 2.16686,9.84966c-0.19127,1.10269 -1.13492,1.94559 -1.5015,3.003c-1.3123,3.78534 -0.15936,9.44263 -7.56275,2.24145c-0.45962,-0.44707 -0.37337,-6.24597 -0.37337,-7.32033c0,-3.21132 0,-6.42263 0,-9.63395c-0.80471,-0.49198 -2.42432,0.10862 -3.50601,0.12194c-3.97101,0.04889 -8.05138,0.25954 -12.01201,0c-0.57525,-0.0377 -1.12952,-0.51368 -1.68868,-0.37337c-0.94119,0.23618 0.44737,1.91482 0.92174,2.76134c0.5471,0.97631 1.07123,1.96987 1.5015,3.003c0.26617,0.63911 -0.01554,1.64095 0.57976,1.99441c0.65456,0.38864 1.52069,-0.47496 2.26306,-0.3065c1.0914,0.24767 2.002,1.001 3.003,1.5015c1.04309,-0.02872 2.08649,-0.04655 3.12998,-0.0565c0.26326,-0.69878 0.8759,-1.51188 2.30164,-1.51188c2.5,0 2.5,2.5 2.5,2.5l-2.5,4.0015c-2.19358,0 -4.3872,-0.02588 -6.58039,-0.06688c-1.001,-0.5005 -1.922,-1.21178 -3.003,-1.5015c-1.20915,-0.32407 -2.71755,0.41158 -3.74295,-0.3065c-1.27966,-0.89612 -1.66044,-2.64826 -2.42324,-4.0116c-1.52593,-2.72725 -3.61207,-5.66139 -3.09928,-8.51247c-0.44744,1.33629 -0.86833,2.65827 -1.36396,3.84664c-1.23329,2.957 -3.59054,5.45818 -4.35076,8.57056c-0.3733,1.52832 0.42126,3.22568 -0.07329,4.71918c-1.90796,5.76182 -7.73406,10.42867 -10.77042,15.59055c-1.54809,2.63179 -2.9189,5.38812 -4.74471,7.83543c-0.86111,0.77444 -2.02704,1.30754 -2.58334,2.32332c-0.32905,0.60084 0.12687,1.3642 0.1903,2.04629v1.5015c0,0 0,2.5 -2.5,2.5z" fill="#000000" stroke="none" stroke-width="0.5"/><path d="M298.55856,343.4109c-2.5,0 -2.5,-2.5 -2.5,-2.5v-1.5015c0,-3.4553 -0.4917,-7.62101 0.04511,-10.98328c0.42494,-2.66157 2.3497,-4.8926 3.003,-7.50751c0.47942,-1.91892 -0.38943,-3.99198 -0.01283,-5.93369c0.30136,-1.55377 1.15816,-2.95947 1.5015,-4.5045c0.68781,-3.09517 -0.03228,-6.90418 -0.03228,-10.11005c0,-4.7007 0.98405,-9.70844 -1.23757,-13.89698c0,0 -1.11803,-2.23607 1.11803,-3.3541c2.23607,-1.11803 3.3541,1.11803 3.3541,1.11803c2.49778,5.21546 1.76543,10.40041 1.76543,16.13305c0,3.48501 0.67202,7.50722 -0.03228,10.91097c-0.3207,1.54989 -1.18109,2.95456 -1.5015,4.5045c-0.41018,1.98416 0.45524,4.10701 -0.01283,6.07832c-0.62265,2.62237 -2.60275,4.84211 -3.003,7.50751c-0.46257,3.08039 0.04511,6.88997 0.04511,10.03774v1.5015c0,0 0,2.5 -2.5,2.5z" fill="#000000" stroke="none" stroke-width="0.5"/><path d="M376.63664,326.89438c-2.5,0 -2.5,-2.5 -2.5,-2.5v-3.003c0,-2.5025 -0.0542,-5.00559 0,-7.50751c0.02591,-1.19613 0.46324,-2.42372 0.17526,-3.58495c-0.14643,-0.59043 -0.99482,-0.72865 -1.36478,-1.21154c-1.08353,-1.41423 -2.0485,-2.91894 -2.96866,-4.44451c-1.45566,-2.41341 -2.65926,-4.99352 -4.33672,-7.25839c-1.62093,-2.18855 -3.85129,-3.89865 -5.36197,-6.16471c-2.23949,-3.35929 -2.89508,-6.20602 -4.12887,-9.96848c-0.01609,-2.4445 0.65885,-4.97008 0.0346,-7.33358c-0.17309,-0.65533 -0.65213,-1.20938 -1.02432,-1.79215c-0.06114,0.13662 -0.11334,0.27636 -0.15009,0.42148c-0.62863,2.48207 -0.77962,5.07727 -1.50875,7.5317c-1.3176,4.43537 -3.45151,8.63313 -4.73401,13.07758c-1.37868,4.77777 -1.46438,10.23801 -3.26825,14.86975c-1.76458,4.53084 -5.27189,9.10228 -7.72818,13.30909c-1.23803,2.12034 -1.84511,4.98231 -3.83087,6.34733c-0.01771,0.223 -0.03104,0.44685 -0.03974,0.6716l-0.86391,0.48908l0.32198,0.32198l-3.003,3.003c0,0 0,0 0,0c-0.45241,0.45241 -1.07741,0.73223 -1.76777,0.73223c-1.38071,0 -2.5,-1.11929 -2.5,-2.5c0,-0.57191 0.19204,-1.09897 0.51515,-1.5202l2.67904,-3.57206c0.18727,-3.38792 2.02465,-5.43134 3.24202,-8.90386c1.02549,-2.92519 2.08947,-5.8703 2.60507,-8.92685c0.53427,-3.16719 0.6655,-9.4934 0,-12.7126c-0.32042,-1.54995 -1.24687,-2.9424 -1.5015,-4.5045c-0.26304,-1.61372 -0.02152,-3.26997 -0.03228,-4.90496c0,0 0,-2.5 2.5,-2.5c2.5,0 2.5,2.5 2.5,2.5c-0.0229,2.91092 0.91495,5.7508 1.46922,8.60855c0.69146,3.56508 0.60521,10.1653 0.06629,13.88542c0.25616,-0.53877 0.49378,-1.08429 0.70934,-1.63778c2.37048,-6.08657 2.62588,-13.07202 4.87567,-19.30062c1.53572,-4.25168 3.25717,-8.39993 4.14606,-12.85158c0.48738,-2.44082 -0.03137,-5.17456 2.48366,-6.98828c1.72036,-1.24064 4.09851,-2.60352 6.0851,-1.86036c1.46443,0.54782 0.60665,3.07796 1.11879,4.55525c0.36658,1.05741 1.24203,1.91434 1.5015,3.003c0.12715,0.53348 0.03645,7.44525 0.0346,7.68143c2.80413,8.24083 8.77233,14.23276 13.19948,21.65347c0.79503,1.33261 1.65884,2.62602 2.57834,3.876c0.64152,0.87208 1.79808,1.4395 2.09722,2.47997c1.05444,3.66751 0.17526,9.06126 0.17526,12.93156v3.003c0,0 0,2.5 -2.5,2.5z" fill="#000000" stroke="none" stroke-width="0.5"/><path d="M395.28595,343.20297c-0.79057,-2.37171 1.58114,-3.16228 1.58114,-3.16228l4.33837,-1.43949c1.12844,-0.54164 2.17225,-1.31637 3.38533,-1.62493c1.96427,-0.49963 3.22495,0.75153 4.81262,-0.83615c1.59373,-1.59373 0.32747,-2.83291 0.83469,-4.80641c0.32602,-1.26847 1.18886,-2.3374 1.68405,-3.54987c0.65048,-1.59267 0.97184,-3.32093 1.74898,-4.85578c0.68994,-1.36262 2.13299,-2.31331 2.61482,-3.76265c0.39766,-1.19615 -0.09095,-2.51963 -0.10727,-3.78004c-0.02992,-2.31096 0.63413,-4.69267 0.06688,-6.93313c-0.53911,-2.12931 -2.35726,-3.78042 -2.96938,-5.88531c-0.525,0.51997 -0.97753,1.09265 -1.29681,1.76313c-0.48234,1.01289 0.47557,2.45245 -0.18307,3.36062c-2.03829,2.81052 -7.88582,4.44769 -11.13564,4.18868c-1.60379,-0.12782 -3.57884,0.34842 -4.77077,-0.73223c-1.04923,-0.95128 -0.25718,-2.84021 -0.66536,-4.19639c-0.70232,-2.33347 -2.02654,-4.77513 -1.5015,-7.15477c1.41099,-6.39506 6.68895,-11.89862 11.17587,-16.2084c1.25178,-1.20236 2.2496,-2.79322 3.81406,-3.54493c0.49606,-0.23835 6.01945,-0.1903 6.96271,-0.1903c0,0 2.5,0 2.5,2.5c0,0.67201 -0.18064,1.16338 -0.4448,1.52267l2.71557,2.71557l-0.25639,0.25639l0.79832,0.55467c0.04614,0.96011 0.46133,6.95931 0,7.91942c-0.68397,1.42348 -2.0798,2.36163 -3.21593,3.47684c0.02471,0.8876 0.12065,1.73399 0.33635,2.49958c0.607,2.15443 2.46461,3.83342 3.003,6.00601c0.64802,2.61496 0.09657,5.388 0.06688,8.08189c-0.01921,1.74325 0.40979,3.56405 -0.10727,5.22896c-0.5358,1.72524 -2.12635,2.94102 -2.93218,4.55785c-1.17504,2.35762 -2.39979,4.74064 -3.03197,7.29787c-0.60196,2.43496 -0.39471,5.43199 -2.16831,7.2056c-2.88977,2.88977 -6.51109,1.80491 -9.82007,3.54493l-4.67064,1.56351c0,0 -2.37171,0.79057 -3.16228,-1.58114zM413.08732,296.41601c0.04849,-0.68674 0.08835,-1.37208 0.08835,-2.05166c0,-2.37156 0.0705,-4.1667 0.33426,-6.00601h-0.33426v-3.003c0,-0.29917 0.05255,-0.58607 0.14893,-0.85197c-0.9533,-0.17835 -1.88511,-0.27698 -2.69822,0.15867c-0.96833,0.51881 -1.435,1.66491 -2.19194,2.46107c-3.96905,4.17467 -8.1065,8.07219 -9.84515,13.82163c-0.73502,2.43058 1.05448,2.28429 1.5015,4.85724c0.11001,0.6332 -0.96585,1.24151 -0.66536,1.80962c0.2238,0.42311 0.76429,-0.64671 1.23524,-0.73223c0.79681,-0.1447 1.64355,0.26565 2.42862,0.06688c0.89958,-0.22776 1.60473,-0.94289 2.45935,-1.30445c0.63761,-0.26975 1.65539,0.02387 1.99441,-0.57976c0.43283,-0.77068 -0.59115,-1.86132 -0.18307,-2.64538c0.30582,-0.5876 3.96541,-4.24742 5.72735,-6.00064z" fill="#000000" stroke="none" stroke-width="0.5"/><path d="M297.56006,256.82682c0,-1.38071 1.11929,-2.5 2.5,-2.5c1.38071,0 2.5,1.11929 2.5,2.5c0,1.38071 -1.11929,2.5 -2.5,2.5c-1.38071,0 -2.5,-1.11929 -2.5,-2.5z" fill="#000000" stroke="none" stroke-width="0.5"/></g></g></svg>