<svg version="1.1" xmlns="http://www.w3.org/2000/svg" xmlns:xlink="http://www.w3.org/1999/xlink" width="668.40641" height="597.81092" viewBox="0,0,668.40641,597.81092"><g transform="translate(83.69636,149.06059)"><g data-paper-data="{&quot;isPaintingLayer&quot;:true}" fill-rule="nonzero" stroke="none" stroke-width="0.5" stroke-linecap="butt" stroke-linejoin="miter" stroke-miterlimit="10" stroke-dasharray="" stroke-dashoffset="0" style="mix-blend-mode: normal"><path d="M507.17973,327.63658c4.79955,3.59966 21.64561,13.47911 24.71404,22.61467c0.94685,2.81903 1.21803,5.82222 1.90281,8.71609c0.10373,0.43838 0.705,1.70698 0.51907,2.37766c-0.38015,1.37125 -2.4663,4.95311 -1.78214,5.73668c3.36457,3.85348 10.63641,5.77221 14.60004,9.81348c11.33257,11.55456 30.33458,31.1906 24.89302,50.11777c-0.83874,2.91736 -4.24885,6.37722 -5.66239,9.03172c-1.70976,3.2108 -6.84525,8.70766 -10.29202,9.80436c-20.16355,6.41568 -35.37782,0.94498 -55.28596,-4.39971c-47.14726,-12.65752 -63.07959,-17.00023 -109.81963,-30.08307c-4.12003,-1.15322 -8.40609,-4.12703 -12.31165,-4.54839c-11.26463,-1.21533 -22.63539,-1.50511 -33.99127,-1.87374l-33.41327,23.04363l-3.43745,1.89614l-0.64091,0.19524l-0.57341,0.34653l-3.70723,1.29145l-37.53754,9.00901l-0.37034,0.05063l-1.297,0.48726l-1.70587,-0.07671l-0.51634,0.07059l-3.39073,-0.24629l-3.39623,-0.15272l-0.50451,-0.13061l-1.70311,-0.12371l-1.23097,-0.63588l-0.36186,-0.09368l-28.52853,-10.51051l-3.53036,-1.71695l-0.00463,-0.0036l-0.00549,-0.00207l-3.308,-2.11389l-27.11634,-21.40764l-0.66281,-0.30543l-0.68615,-0.75953l-0.06323,-0.04992l-2.8239,-2.72708l-1.12526,-1.66453l-1.34686,-1.49091l-1.97203,-3.39448l-0.03333,-0.07334l-0.57326,-0.84798l-0.13794,-0.71664l-6.02765,-13.26083c-2.88254,-0.7242 -5.73837,-1.59697 -8.49419,-2.70942c-0.65237,-0.26335 -0.90284,-1.26707 -1.59732,-1.3795c-10.21742,-1.65414 -20.95935,-0.02245 -31.34612,-1.98698c-4.20442,-0.79522 -8.324,-2.15528 -12.5876,-2.51752c-5.66095,-0.48096 -11.3632,0.07655 -17.04403,0c-0.88909,-0.01198 -1.79543,-0.49565 -2.65428,-0.26543c-5.07905,1.36147 -9.95784,3.38442 -14.96555,4.98852c-7.01486,2.24704 -19.13998,3.34557 -23.62378,3.99521c-4.49011,0.65055 -8.37018,1.10779 -11.79142,1.40663l-0.07941,0.09195l-1.28557,0.34745l-0.1159,0.1092l-7.57117,2.7752v8.70743l-0.39062,3.90625l-0.02641,0.08302l-0.00119,0.08711l-0.86469,3.82932l-6.00601,18.01802l-0.49413,1.10228l-0.86228,3.39521l-2.61177,2.32611l-2.94931,4.04672l-4.80235,2.85709l-0.81691,0.72756l-0.61533,0.12453l-3.524,2.09656l-5.31589,-0.30753l-5.21897,1.05622l-3.78508,-1.57712l-0.62676,-0.03626l-0.9116,-0.60472l-5.15813,-2.14922l-3.49196,-3.58896l-2.91448,-1.93337l-1.33377,-3.23915l-0.64505,-1.02132l-1.5015,-3.003l-0.50181,-1.31724l-0.06471,-0.10483l-0.40466,-1.12726l-0.42637,-1.11922l-0.01909,-0.12171l-0.47625,-1.32669l-1.5015,-6.00601l-0.21836,-1.49216l-0.33502,-1.47037l-1.5015,-12.01201l-0.01641,-0.66459l-0.11311,-0.6551l-1.42101,-19.89416c-1.75041,-1.38391 -3.48876,-3.19856 -5.24678,-5.58104c-1.36663,-1.85206 -1.06044,-4.48681 -1.8016,-6.66591c-0.74116,-2.1791 -2.59029,-4.08078 -2.63629,-6.38202c-0.14816,-7.41269 2.74171,-13.89287 7.59047,-18.80581l-1.03983,-32.2348l0.02725,-0.40356l-0.04025,-0.40247l0,-40.4659l-0.5222,-2.0888l-2.69939,-8.09816l-0.39051,-1.72941l-0.48915,-1.70414l-3.003,-16.51652l-0.02131,-0.26517l-0.06796,-0.2572l-6.00601,-37.53754l-0.04704,-0.79661l-0.15433,-0.78293l-3.003,-31.53153l0.00168,-0.35608l-0.05892,-0.35117l-1.48772,-22.31581l-1.4843,-17.81157l0.0172,-1.04058l-0.10356,-1.03556v-10.16811l-0.11725,0.02647l-2.15879,1.02864l-4.99056,-0.75329l-2.7045,0.03705l-1.7072,-0.70297l-1.82559,-0.27556l-2.30003,-1.42322l-4.66693,-1.92168l-1.32191,-1.99273l-2.21869,-2.11935l-7.14843,-8.33984l-1.18844,-0.59083l-1.84905,-3.2675l-1.06865,-1.53241l-0.59906,-1.41464l-2.07561,-3.66786l-0.18582,-1.67239l-0.65616,-1.54948l0.01573,-4.21439l-0.16965,-1.52686l0.18229,-1.85932l0.01401,-3.75438l0.74743,-1.09673l1.99014,-9.95071l-0.03331,-0.48297l0.30471,-0.87403l0.18077,-0.90387l1.14912,-3.75379l0.7942,-1.43513l0.53995,-1.54881l2.03125,-3.35937l0.55306,-0.73741l0.44819,-0.80988l0.38214,-0.29722l7.62562,-10.16749l1.56543,-1.70356l1.54145,-1.72529l18.01802,-16.51652l0.98622,-0.73778l0.9069,-0.83336l18.01802,-13.51351l1.54122,-0.9319l1.48748,-1.01549l14.18145,-7.73534l1.41672,-3.89598l-0.74501,-0.32325l-0.18168,-0.04299l-0.94768,-0.44702l-0.96123,-0.41706l-0.15219,-0.10814l-1.48945,-0.70257l-15.01502,-9.00901l-0.47838,-0.35624l-0.52673,-0.27983l-9.00901,-6.00601l-1.90357,-1.56364l-1.9066,-1.55994l-6.00601,-6.00601l-2.48592,-3.03835l-0.20207,-0.39067l-0.4356,-0.38115l-0.4416,-1.31477l-3.06394,-5.92361l-0.29923,-4.08945l-0.96219,-2.8647l0.59542,-2.14777l-0.16265,-2.22284l1.50532,-2.62037l1.09542,-3.95135l4.16615,-5.20769l0.69087,-1.20263l0.50189,-0.28832l0.27476,-0.34345l3.03352,-2.49182l4.05519,-2.70346l1.22125,-1.46064l10.91297,-3.13748l0.22817,0.02852l0.22099,-0.06353l11.26735,1.40842l1.43285,1.25374l19.02921,8.78271l1.32912,0.78247l0.1508,0.05502l0.944,0.5895l0.95909,0.56463l0.1185,0.1083l1.30822,0.81695l4.10647,3.17318l12.30071,-24.60143l0.51328,-0.8127l0.41007,-0.86936l9.00901,-15.01502l2.34471,-3.14861l1.38477,-1.22024l2.46329,-9.85317l1.32637,-3.69488l0.83763,-1.35696l1.16074,-2.91153l1.67247,-1.67828l1.06618,-1.7272l2.19555,-1.54585l3.08109,-3.09179l1.81226,-0.35353l2.19566,-1.54593l6.34684,-0.12051l4.33994,-0.84662l2.07999,0.72472l2.20223,-0.04181l3.86133,2.15451l5.99454,2.08865l1.60591,2.15218l1.61241,0.89968l1.9666,3.89677l1.60583,2.15207l0.47606,1.97315l1.0675,2.11524l0.19757,3.12815l0.37401,1.55019l0.11132,3.92415l-1.5015,21.02102l-0.15041,0.87113l-0.03732,0.88323l-2.89911,20.29375l-1.41179,16.94153l-0.78152,14.0673l1.36042,-0.51825l0.39223,-0.06153l3.6257,-1.51071l2.62209,0.53066l2.2693,-0.35597l11.00565,2.79508l4.69072,5.26677l3.03678,2.70463l32.85352,-4.28524l29.19998,-5.84l1.32862,-0.13026l1.31089,-0.25256l33.03303,-3.003l0.2736,0.00246l0.26974,-0.04589l43.54354,-3.003l0.86196,0.02657l0.85809,-0.08581h31.53153l0.5666,0.05666l0.56859,-0.03087l32.85592,1.49345l44.78337,1.39948l11.54653,-4.32995l3.79469,-1.00582l0.55121,-0.02798l0.52594,-0.16734l3.90625,-0.39062h7.50751l1.24556,0.12456l2.2483,-0.45501l5.98941,2.49559l3.01673,0.95987l0.6647,0.57406l0.81072,0.3378l2.20766,2.26898l4.91067,4.24103l0.59849,2.21443l0.66844,1.05836l0.60221,1.20443l0.41361,0.47891l0.23007,0.72307l8.68476,2.71399l23.32161,5.8304l0.90469,0.32476l0.93761,0.21172l18.01802,6.00601l1.61784,0.72524l1.65681,0.63116l27.02703,13.51351l2.69368,1.70127l1.79403,0.92928l2.48836,3.02383l2.80674,2.73088l0.77708,1.865l0.99282,1.90622l10.29999,-2.78378l14.45313,3.90625l7.42188,8.59375l2.73438,8.59375l0.39063,3.90625v7.50751l-0.39062,3.90625l-0.24977,0.78498l-0.05963,0.8216l-0.28418,0.98515l0.08095,0.06992l0.24304,0.89926l0.88436,0.90241l1.33892,7.32374l1.43993,5.32772l-0.27792,1.0283l0.19156,1.04783l-1.09799,3.03521l19.12995,13.5035l0.38707,0.33562l1.28901,0.70363l1.0264,1.30403l0.26354,0.22851l2.11788,2.79706l2.16993,2.75688l0.15437,0.3128l1.00178,1.32304l0.35446,1.42513l0.22672,0.45942l3.83332,10.22218l0.38456,0.56006l0.19947,0.99735l0.08716,0.23243l1.00582,3.79469l0.09781,1.92684l0.37837,1.89185l-0.04314,3.9255l-0.02741,0.24671l0.05156,1.01579l-0.23524,0.63735l-1.29041,11.61366l-0.81961,3.83922l-0.37646,0.84593l-0.17604,0.90903l-1.52759,3.61633l-9.00901,16.51652l-0.80361,1.17712l-0.05105,0.11721l-0.6892,0.9671l-0.66958,0.98079l-0.09236,0.08839l-0.82716,1.1607l-8.80951,10.06801l-0.13967,0.30011l-0.57037,0.51137l-0.99096,1.13253l-2.86626,2.68252l-1.22298,0.73961l-1.06416,0.95408l-3.40189,1.95921l-1.37232,0.61754l-0.65549,0.39642l-0.3278,0.04606l-12.88009,5.79604l11.61949,20.91508l1.35633,1.35014l2.1803,11.14375l-0.03248,0.15157l0.03065,0.15195l-2.31439,11.11667l-1.3725,1.3337l-5.46149,9.5576l-5.69568,11.39136l-2.09631,3.31916l-0.44102,0.45327l-0.31467,0.54858l-2.61555,2.9275l-0.24219,0.22201l1.10355,0.68972l1.24072,0.95949l0.14863,0.07688l0.84868,0.69438l0.86743,0.67081l0.10833,0.12753l1.21391,0.9932l0.90451,0.90451l0.08887,0.04603l0.19906,0.24189l1.81057,1.81057l2.48592,3.03835l0.51819,1.00183l0.7167,0.87093l1.81343,3.48179l0.95096,2.37739l0.14392,0.27825l0.0073,0.09981l1.90082,4.75205l1.08806,3.77194l0.29002,3.99581l0.41001,1.51702l-0.23641,0.87472l0.18922,2.60707l-3.6994,10.73551l-0.12037,0.09046l-0.03929,0.14536l-8.59375,7.42188l-2.49087,0.79255l-0.72436,0.54437l-1.56079,0.18273l-3.81773,1.21473l-3.90625,0.39063h-13.51351l-1.93443,-0.19344l-0.2446,0.01545l-0.86118,-0.12603l-0.86604,-0.0866l-0.23355,-0.07431l-1.92359,-0.2815l-0.00386,-0.00097l0.86599,7.36091l0.01718,0.98472l0.13559,0.97549l0.47532,12.35838c1.00195,0.54979 1.9961,1.18368 2.98414,1.92471z" fill="#ff0000"></path><path d="M121.46447,165.27878c-3.53553,-3.53553 0,-7.07107 0,-7.07107l2.9544,-2.20788c3.46439,-1.0505 5.72858,-3.56647 8.80764,-5.41683c0.57178,-0.34361 1.37133,-0.36357 1.79997,-0.87472c1.25345,-1.49475 0.61883,-3.98365 1.72028,-5.59369c1.02972,-1.5052 2.91673,-2.30034 3.90225,-3.83484c0.60118,-0.93606 0.27399,-2.22845 0.66157,-3.27124c0.44946,-1.20929 1.46483,-2.17468 1.82318,-3.41403c0.51548,-1.78279 0.44223,-4.02084 0.57231,-6.12258c-1.85548,0.8087 -3.9603,1.2247 -6.70606,1.27134c-6.70362,-0.13529 -14.11242,6.61032 -20.05621,-0.07645c-1.13545,-1.27738 -0.95588,-7.90054 -0.94379,-9.92355c0.02591,-4.33378 -0.75733,-8.85859 2.46447,-12.53553c1.57825,-1.80122 4.51688,-1.80883 6.36559,-3.33118c0.89707,-0.7387 1.53972,-1.79724 2.54129,-2.38654c3.21065,-1.88908 7.70119,-2.53891 11.23072,-3.54735c4.34859,-1.24245 7.81877,-2.16219 12.39794,-2.1994c0,0 5,0 5,5c0,0.69737 -0.09726,1.29747 -0.26466,1.81388c1.36376,0.89294 2.26466,2.43432 2.26466,4.18612v3h-0.13461c0.04231,0.13617 0.08157,0.27361 0.11757,0.4124c0.70929,2.73469 -1.6348,7.26897 -2.02043,10.19851c-0.21061,1.59995 0.25481,3.28312 -0.17708,4.838c-0.32165,1.15801 -1.60735,1.8641 -2,3c-0.25665,0.74248 0.2732,1.57613 0.14998,2.35199c-0.16534,1.04104 -0.82492,1.96055 -1,3c-0.18539,1.10069 0.23485,2.27387 -0.06919,3.34785c-0.46092,1.62814 -1.57936,3.00282 -2.17682,4.58597c-0.57841,1.53267 -0.48408,3.33101 -1.33843,4.72876c-1.01574,1.66181 -2.92601,2.60941 -4.09775,4.16516c-1.36363,1.81054 -0.87719,4.62573 -2.27972,6.40631c-1.07981,1.37088 -2.77863,2.1129 -4.20003,3.12528c-3.67538,2.61777 -6.91623,5.07996 -11.19236,6.58317l0.9544,-0.20788c0,0 -3.53553,3.53553 -7.07107,0zM137.39794,107.54384c-1.59823,0.4555 -3.35841,0.57445 -4.76928,1.45265c-1.94974,1.21361 -3.35637,3.25522 -5.4319,4.23832c-0.50062,0.23712 -1.12323,-0.08798 -1.66122,0.04396c-0.15538,0.03811 0.38635,0.10597 0.3999,0.26538c0.14679,1.72694 0.0524,3.46597 0.06456,5.19909c0.00462,0.65864 0.07807,1.32568 0.11496,1.98869c3.71197,-1.39144 6.79189,-1.93364 10.88504,-1.98869c3.63415,0.10669 3.91057,-0.98164 6.46447,-3.53553c1.06303,-1.06303 2.51986,-1.79743 3.28228,-3.09312c0.14611,-0.24831 0.26646,-0.50785 0.36936,-0.77506c-0.07584,-1.24026 -0.08714,-2.42408 0.80218,-2.9544c0.026,-0.08643 0.05315,-0.17238 0.08171,-0.25775v-2.38413c0,-0.28595 0.024,-0.5663 0.07011,-0.83913c-3.63204,0.42558 -7.06779,1.61247 -10.67217,2.63973z" fill="#000000"></path><path d="M182,149.74324c0,0 -1.30305,0 -2.57874,-0.66521c-2.68694,4.91037 -6.98841,8.86213 -8.67784,14.24635c0,0 -1.58114,4.74342 -6.32456,3.16228c-4.74342,-1.58114 -3.16228,-6.32456 -3.16228,-6.32456c2.0773,-5.99974 6.32897,-10.25124 9.31831,-15.7466c0.83046,-1.52664 1.14519,-3.29193 1.9225,-4.8463c2.39554,-4.7903 5.56595,-9.28715 8.01104,-14.02271c1.15849,-2.24372 1.02839,-4.99971 2.14058,-7.26674c0.4426,-0.90218 1.56011,-1.31618 2.09775,-2.16516c0.78031,-1.23218 1.1305,-2.72586 1.31782,-4.17226c0.16311,-1.25952 -0.1866,-2.55003 -0.0271,-3.81001c0.45221,-3.5723 1.51159,-7.04361 2.10998,-10.59434l0.27988,-0.31897l-0.17074,-0.05691l0.96354,-2.89062c0.62835,-2.04312 2.53068,-3.52824 4.77988,-3.52824c2.32356,0 4.27693,1.58494 4.83799,3.73268l1.96963,6.89372l-0.16772,0.04792c0.10593,0.20964 0.20991,0.42034 0.31177,0.63218c0.41783,0.86898 -0.17501,1.94154 -0.01623,2.89259c0.17358,1.0397 0.86905,1.95407 1,3c0.21983,1.75575 -0.12581,3.54657 0.04023,5.30822c0.35168,3.73126 2.14138,6.7044 2.87689,10.28743c0.33199,1.61728 0.00756,3.37373 0.59328,4.91735c0.38067,1.00324 1.85754,1.34905 2.17356,2.37449c1.15459,3.74648 -0.30289,7.4336 0.31604,11.11251c0.65112,3.87028 3.1394,6.73236 1.68396,10.88749l0.91614,0.37788c0,0 3.53553,3.53553 0,7.07107c-3.53553,3.53553 -7.07107,0 -7.07107,0l-3.08386,-3.62212c-0.17809,-2.29904 0.06325,-4.6359 -0.28412,-6.91342c-5.55839,0 -12.72572,0 -18.09648,0zM198,136.74324c0.05275,-0.70503 0.6372,-1.42779 0.3806,-2.08658c-0.2958,-0.75944 -1.54277,-0.86146 -1.82644,-1.62551c-0.83779,-2.25649 -0.85231,-4.74037 -1.40672,-7.08265c-0.40464,-1.70952 -1.18304,-3.31202 -1.71452,-4.98569c-0.08175,0.20438 -0.14375,0.3468 -0.17967,0.40908c-0.44013,0.76317 -1.49935,1.05138 -1.90225,1.83484c-1.06486,2.07067 -0.83694,4.64135 -1.85942,6.73326c-1.63297,3.34091 -3.74492,6.54567 -5.67971,9.80324c4.72938,0 9.45875,0 14.18813,0c-0.01432,-1.41166 -0.01971,-2.73659 0,-3z" fill="#000000"></path><path d="M294.23607,173.21538c-4.47214,2.23607 -6.7082,-2.23607 -6.7082,-2.23607l-0.0634,-0.70053c-4.91354,-4.98607 -7.83553,-11.09732 -10.9366,-17.29947c-0.99102,-1.98203 -1.90268,-3.89599 -2.72588,-5.79201c-0.77462,2.14446 -2.0071,4.09547 -3.95401,5.66557c-7.39557,5.96424 -10.42374,-2.19302 -11.78341,-6.30872c-0.27741,-0.83971 0.30025,-1.79852 0.06919,-2.65215c-1.01057,-3.73347 -3.97436,-6.64553 -5.69829,-10.10792c-0.3727,-0.74854 -0.21779,-1.72122 -0.68872,-2.41219c-0.79647,-1.1686 -2.22912,-1.81436 -3,-3c-0.71925,-1.10622 -0.83849,-2.50585 -1.36614,-3.71524c-0.96201,-2.20493 -1.77737,-4.24116 -2.46365,-6.25353c0.01985,0.98397 0.16748,1.97589 0.04559,2.95103c-0.17047,1.36376 -0.79526,2.64097 -1,4c-0.51717,3.43288 0.70349,7.10869 -0.09629,10.53785c-0.33859,1.45175 -1.60821,2.56169 -2,4c-0.59545,2.18599 0.56207,4.59127 0.04354,6.79677c-0.45717,1.94453 -1.52816,3.69527 -2.15232,5.59281c-1.38383,4.20706 -2.45329,8.15941 -4.11508,12.31861c0,0 -1.85695,4.64238 -6.49934,2.78543c-4.64238,-1.85695 -2.78543,-6.49934 -2.78543,-6.49934c2.06889,-5.16605 4.28025,-10.74876 5.7326,-16.08858c0.63017,-2.31695 -0.50184,-4.86486 0.04354,-7.20323c0.33859,-1.45175 1.60821,-2.56169 2,-4c0.51274,-1.88234 -0.14481,-3.90035 -0.13376,-5.85124c0.01451,-2.56039 0.71988,-5.07025 1.03746,-7.61092c0.33333,-2.66667 0.65286,-5.3351 1,-8c0.19653,-1.50871 -0.33481,-5.78969 0.0271,-7.18999c0.51852,-2.00626 0.7429,-4.49032 2.3999,-5.73462c8.0184,-6.02129 8.8115,-1.42154 13.22171,3.79206c0.99479,7.22081 2.23137,11.38305 4.93322,17.83006c0.30548,0.72893 0.18605,1.63351 0.63386,2.28476c0.80128,1.16531 2.22559,1.81666 3,3c0.69725,1.06543 0.74002,2.44983 1.31128,3.58781c0.75261,1.49925 2.18584,3.48771 3.52534,5.6466c-0.04902,-0.8692 -0.09669,-1.73864 -0.08987,-2.60575c0.01646,-2.08969 -0.61226,-4.13447 -0.93544,-6.19909c-0.57055,-3.64494 -0.20591,-8.11942 -0.06456,-11.80091c0.07578,-1.97376 -0.67984,-4.247 0.3806,-5.91342c1.49395,-2.34764 4.41293,-3.39106 6.6194,-5.08658c2.08442,1.45711 4.59206,2.44562 6.25325,4.37134c2.14105,2.48199 1.72289,6.74615 1.74675,9.62866c0.04809,5.81068 -0.14378,11.27019 0.90675,17.03883c0.91322,5.01464 3.31224,9.2188 5.56539,13.7251c2.57387,5.14775 4.89753,10.62057 9.0634,14.70053l1.9366,3.29947c0,0 2.23607,4.47214 -2.23607,6.7082z" fill="#000000"></path><path d="M372,173.74324c0,5 -5,5 -5,5h-3c-3.9974,0 -8.00339,0.07478 -12,0c-1.3834,-0.02588 -2.82921,0.28245 -4.14876,-0.13376c-2.19485,-0.69229 -4.10683,-2.07857 -6.16025,-3.11785c-2.57339,-3.68041 -4.93557,-7.37446 -5.62642,-11.94748c-0.18188,-1.20394 0.35837,-2.46938 0.06919,-3.65215c-0.29132,-1.19151 -1.25916,-2.11261 -1.75315,-3.23535c-1.96582,-4.46787 -2.84468,-10.00563 -5.52094,-14.11027c-0.98396,-1.50912 -1.93568,-2.4283 -2.95907,-3.19357c-2.83786,-0.44196 -5.47731,-1.39328 -8.67409,-3.44932c0,0 -4.16025,-2.7735 -1.38675,-6.93375c0.10605,-0.15907 0.21412,-0.308 0.32391,-0.44734c0.81469,-3.16373 3.26506,-6.4603 3.9701,-8.92792c0.34548,-1.20919 -0.33015,-2.64725 0.24685,-3.76465c1.06073,-2.0542 6.2317,-6.51812 7.84213,-8.36259c3.22281,-3.69119 3.93203,-6.72402 8.86385,-9.34339c1.07579,-0.57137 5.31102,-0.36893 7.11251,-0.31604c2.80338,-0.93446 5.8459,-1.05811 8.80091,-1.06456c7.36094,-0.01607 14.88638,-0.06204 18.6194,8.08658c1.02238,2.2317 0.63635,4.95307 0.16606,7.36234c-0.28997,1.48548 -1.69318,2.52029 -2.36035,3.87882c-1.89981,3.86852 -3.86073,7.72629 -6.20006,11.346c-1.25316,1.93905 -2.04784,4.23845 -3.68952,5.86179c-6.0712,6.00336 -13.20186,6.47952 -20.78341,6.48019c2.01132,4.1273 3.14046,8.94835 4.86728,13.07086c0.67841,1.6196 1.81431,3.06281 2.24685,4.76465c0.35705,1.4048 -0.12269,2.91114 0.06919,4.34785c0.25944,1.94249 1.41354,4.35149 2.37358,6.05252c4.261,2.04311 10.96068,0.74839 15.69099,0.74839h3c0,0 5,0 5,5zM329.8984,129.8571c1.42477,0.00316 3.04065,-0.10809 5.1016,-0.11385c5.93907,-0.01662 12.77561,1.23656 17.46447,-3.53553c1.10725,-1.1269 1.47412,-2.79791 2.31048,-4.13821c1.20213,-1.92646 2.71422,-3.65961 3.79994,-5.654c0.85827,-1.57657 1.18306,-3.40162 2,-5c0.5002,-0.97866 2.47225,-1.88494 1.80571,-2.75884c-2.20634,-2.89274 -6.31965,-1.90477 -9.3806,-1.91342c-2.41986,-0.00684 -4.9034,0.17021 -7.19909,0.93544c-1.26697,0.02152 -2.5364,0.14633 -3.80091,0.06456c-0.38297,-0.02476 -0.77311,-0.60199 -1.08658,-0.3806c-2.28924,1.61675 -3.28851,4.5493 -5.13615,6.65661c-1.32101,1.50667 -2.76377,2.90648 -4.24174,4.25953c-0.58027,0.53122 -1.58619,0.66371 -1.91614,1.37788c-0.3144,0.68053 0.45279,1.51455 0.24685,2.23535c-0.4824,1.68839 -1.56666,3.14579 -2.24685,4.76465c-0.21502,0.51175 -0.26017,1.11258 -0.39353,1.6605c0.09075,0.03141 0.1853,0.06522 0.28377,0.10153c0.66717,0.24601 1.49691,0.76696 2.38877,1.4384z" fill="#000000"></path><path d="M135,192.74324c5,0 5,5 5,5l-0.03746,2.38908c0.53122,2.03248 0.4278,4.27918 1.38846,6.14742c0.35023,0.68111 1.28953,0.89668 1.70521,1.53994c0.66883,1.035 0.60263,2.52201 1.47932,3.38802c0.95844,0.94676 2.64448,0.82101 3.6682,1.69678c1.34371,1.14952 1.97935,2.9587 3.23234,4.20649c0.8516,0.84807 2.1617,1.13878 3,2c3.06525,3.14908 8.18287,10.43872 7.51968,15.29593c-0.26265,1.92367 -1.79873,3.44373 -2.79551,5.10984c-1.39327,2.32883 -3.19637,4.9667 -5.5316,6.47975c-1.02065,0.6613 -2.34261,0.6975 -3.4319,1.23832c-3.03131,1.505 -5.6073,3.79137 -8.42326,5.66868c-1.44153,0.87507 -2.69393,2.19539 -4.32458,2.62521c-3.85397,1.01585 -10.32092,0.34642 -14.44892,0.21454c-2.63951,-0.08433 -5.53704,0.77132 -7.91342,-0.3806c-2.84464,-1.37891 -5.05995,-4.0071 -6.70598,-6.70598c-0.85535,-1.40246 -0.30169,-3.2726 -0.3806,-4.91342c-0.257,-5.3435 -0.66576,-11.55681 0.06456,-16.80091c0.87617,-6.29135 5.12066,-12.43523 10.01189,-16.2553c1.17486,-0.91757 2.80708,-1.10604 4,-2c1.42676,-1.0692 2.40205,-2.64769 3.75361,-3.8105c1.36975,-1.17847 2.86184,-2.22049 4.23993,-3.38722c-0.01173,-0.04892 -0.02259,-0.09405 -0.03252,-0.13516l-0.03746,-3.61092c0,0 0,-5 5,-5zM133.09028,211.84405c-0.30969,0.25206 -0.61698,0.50679 -0.92034,0.7659c-1.51194,1.29143 -2.65611,2.99588 -4.24639,4.1895c-1.19224,0.89486 -2.78379,1.13799 -4,2c-2.86493,2.03057 -5.63006,6.22623 -5.98811,9.7447c-0.40282,3.95836 0.06456,8.20763 0.06456,12.19909c0,0.94904 -1.04469,5.04819 0.91342,5.3806c2.66045,0.45164 5.38807,-0.3806 8.08658,-0.3806c3.38435,0 6.55855,1.02898 9.2265,-1.16025c3.18409,-2.12273 6.15854,-4.61077 9.57674,-6.33132c0.79756,-0.40145 1.77076,-0.35981 2.5681,-0.76168c1.27979,-0.64502 1.55102,-2.4192 2.4684,-3.52025c0.31958,-0.38356 1.01435,-0.42855 1.20449,-0.89016c0.0999,-0.24254 -0.52547,-0.19994 -0.66364,-0.42292c-1.71064,-2.76061 -1.39232,-3.944 -3.81668,-6.28115c-0.86526,-0.83413 -2.15207,-1.14827 -3,-2c-1.10434,-1.10929 -1.58017,-2.77374 -2.76766,-3.79351c-1.24066,-1.06543 -3.18071,-1.1416 -4.3318,-2.30322c-1.23316,-1.24445 -1.53463,-3.16386 -2.52068,-4.61198c-0.48386,-0.71061 -1.28353,-1.18614 -1.85351,-1.82274z" fill="#000000"></path><path d="M235.47214,200.50717c2.23607,4.47214 -2.23607,6.7082 -2.23607,6.7082l-0.70053,0.0634c-3.5876,3.36617 -4.99109,8.08937 -7.36133,12.21692c-0.91327,1.59037 -2.84797,2.62099 -3.30796,4.39631c-0.50164,1.93607 0.50709,4.06535 0,6c-0.40374,1.54035 -1.38719,2.86677 -2.08078,4.30016c-0.33333,2.66667 -0.21455,5.42992 -1,8c-2.27167,7.43314 -7.80276,15.35988 -16.32099,9.08661c-2.20584,-1.62449 -1.82375,-5.114 -2.95604,-7.33878c-0.4918,-0.9663 -1.29837,-1.74383 -1.83297,-2.68712c-1.84445,-3.25444 -3.52742,-6.97722 -5.16703,-10.31288c-0.92998,-1.89198 -1.08565,-4.10042 -2,-6c-1.08654,-2.25731 -3.60641,-3.56394 -4.85942,-5.73326c-0.76787,-1.3294 -0.61796,-3.02914 -1.22157,-4.44073c-1.1754,-2.74877 -3.55615,-4.97688 -4.29367,-7.874c-0.42355,-1.66377 -0.08917,-3.43251 -0.13376,-5.14876c0,0 0,-5 5,-5c5,0 5,5 5,5c-0.20751,4.42355 1.87921,5.03476 3.57257,8.97723c0.4793,1.11589 0.18276,2.50092 0.77843,3.55927c0.55658,0.98889 1.79603,1.4162 2.51571,2.29355c1.0067,1.22724 1.90276,2.55963 2.62487,3.97319c0.95906,1.8774 1.04161,4.12225 2,6c0.54637,1.07048 1.46441,1.92409 2,3c1.0788,2.16716 1.6239,4.58986 2.83297,6.68712c0.80369,1.39408 1.71805,2.76983 2.42832,4.21894c0.19294,-0.3712 0.35604,-0.75373 0.46167,-1.15823c0.679,-2.60023 0.66667,-5.33333 1,-8c0.63974,-1.23328 1.49381,-2.37724 1.91922,-3.69984c0.61239,-1.90394 -0.56879,-4.08259 0,-6c0.60882,-2.05233 1.68585,-3.95299 2.81003,-5.77479c0.45937,-0.74443 1.4497,-1.06843 1.88201,-1.8289c0.88711,-1.56053 1.1061,-3.44335 2,-5c0.50347,-0.87675 1.55681,-1.33012 2.11799,-2.1711c1.48197,-2.22083 2.66666,-4.6908 4.52068,-6.61198l3.29947,-1.9366c0,0 4.47214,-2.23607 6.7082,2.23607z" fill="#000000"></path><path d="M297.93371,245.84861c1.447,0.27611 4.06629,1.27572 4.06629,4.89463c0,5 -5,5 -5,5l-4.53553,-1.46447c-1.01343,-1.1888 -2.7602,-1.46767 -4.09312,-2.28228c-2.01012,-1.22848 -3.73523,-2.87397 -5.54129,-4.38654c-3.32079,-2.78116 -6.29631,-6.2619 -9.36559,-9.33118c-1.06303,-1.06303 -1.79743,-2.51986 -3.09312,-3.28228c-2.13295,-1.25509 -5.71593,-1.20078 -8.27337,-2.42875c-1.20017,-0.38616 -2.43203,-0.89674 -3.72663,-1.57125c-2.32834,-1.21311 -4.14464,-4.42585 -5.5316,-6.47975c0,0 -2.7735,-4.16025 1.38675,-6.93375c4.16025,-2.7735 6.93375,1.38675 6.93375,1.38675c0.36923,0.56333 0.64825,1.24412 0.97584,1.86891c0.20961,-0.15884 0.39436,-0.33587 0.51291,-0.5589c1.70199,-3.202 0.62051,-7.8355 3.18106,-10.40322c1.47653,-1.48067 4.1133,-0.75553 6.16994,-1.13329c2.29424,0.03897 4.5426,0.65824 6.80091,1.06456c2.34392,0.42173 4.82097,-0.49631 7.14463,0.02566c4.26804,0.95873 12.6319,5.11993 14.017,9.29887c0.94067,2.83805 -8.08076,11.17568 -10.04912,12.23031c-0.88145,0.47227 -2.07152,-0.37139 -3,0c-0.87538,0.35015 -1.09716,1.7284 -2,2c-0.35753,0.10756 -0.96422,0.18574 -1.71227,0.24239c1.93556,2.24424 3.84167,4.50891 5.9688,6.27151c2.92359,2.42256 5.93033,3.7808 8.76376,5.97208zM272.73293,218.74219c0.42577,1.56967 -0.15759,3.56621 -0.75396,5.05101c0.98056,-0.01804 1.98247,-0.04996 3.02102,-0.04996c1.33333,0 2.66927,-0.08321 4,0c0.70563,0.04412 1.4293,0.64106 2.08658,0.3806c0.8765,-0.34733 1.12462,-1.64985 2,-2c0.92848,-0.37139 2.08391,0.40096 3,0c0.33009,-0.14448 0.62879,-0.57134 0.92816,-1.09301c-1.0055,-0.37607 -1.90354,-1.14719 -2.96028,-1.37781c-0.99518,-0.21718 -2.03587,0.08641 -3.05446,0.09022c-3.02978,0.01134 -5.42108,-0.92761 -8.26707,-1.00105z" fill="#000000"></path><path d="M371.23607,255.21538c-4.47214,2.23607 -6.7082,-2.23607 -6.7082,-2.23607l-0.0634,-0.70053c-1.49343,-1.52487 -3.49077,-2.49077 -5,-4c-3.5835,-3.5835 -5.5943,-8.64531 -10.09312,-11.28228c-0.90939,-0.53303 -2.1079,-0.43852 -3,-1c-1.12263,-0.70657 -2.01737,-1.73368 -2.90688,-2.71772c-0.04541,-0.05024 -0.07502,-0.11367 -0.09609,-0.18373c-0.51538,0.2129 -1.03713,0.40944 -1.56747,0.58364l-0.80091,-0.37904v0.4436l-0.77257,0c-0.09886,1.8014 -0.22743,3.53925 -0.22743,5c-0.17559,5.44629 -3.0794,15.71255 -11.14876,14.86624c-2.581,-0.27069 -3.30119,-4.03527 -4.59465,-6.28511c-1.14373,-1.9894 -0.81477,-4.51671 -1.19202,-6.78023c-0.17329,-1.03975 -0.83699,-1.95859 -1,-3c-0.53788,-3.4362 -0.06456,-7.31925 -0.06456,-10.80091c0,-3.16198 0.62405,-7.08951 0.06456,-10.19909c-0.18666,-1.03743 -0.83699,-1.95859 -1,-3c-0.3093,-1.97594 0.35416,-4.03161 0,-6c-0.40632,-2.25831 -1.02559,-4.50667 -1.06456,-6.80091c0,0 0,-5 5,-5c5,0 5,5 5,5c-0.02429,0.82721 0.12073,1.641 0.30954,2.45187c0.13822,-0.47368 0.32303,-0.92507 0.60338,-1.33211c0.93135,-1.35221 2.63503,-1.96075 3.91713,-2.98647c1.10987,-0.88793 1.92942,-2.24372 3.25653,-2.75269c1.35946,-0.52137 8.94182,-0.53972 10.14949,0.14726c1.85667,1.05617 2.66332,3.35619 4.20001,4.83987c2.83111,2.73343 7.67939,3.45821 9.18332,7.71885c1.5378,4.35657 0.30604,6.74604 -0.87598,10.49456c-0.49672,1.34917 -0.72578,2.82985 -1.49016,4.04752c-1.46522,2.3341 -3.41846,3.65478 -5.55541,4.73996c0.32718,0.08933 0.64332,0.20243 0.93081,0.37813c0.99156,0.60599 1.63328,1.66133 2.54129,2.38654c1.06633,0.85166 2.4006,1.36619 3.36559,2.33118c2.26332,2.26332 3.74883,5.74883 6,8c1.50923,1.50923 3.47975,2.50187 5,4l1.9366,3.29947c0,0 2.23607,4.47214 -2.23607,6.7082zM343.70079,221.87305c0.36069,-0.22128 0.72598,-0.43315 1.10245,-0.62138c3.13369,-1.56684 5.50404,-1.45411 6.45334,-5.08956c0.41971,-1.15307 1.33672,-2.29694 1.12402,-3.50544c-0.03193,-0.18139 -0.38957,0.04277 -0.55055,-0.04671c-0.90696,-0.50412 -1.74381,-1.12547 -2.60356,-1.70646c-1.2291,-0.83059 -2.63506,-1.45804 -3.66258,-2.52798c-0.83969,-0.87437 -0.95413,-2.29173 -1.79999,-3.16013c-0.21597,-0.22172 -0.45539,0.50331 -0.76393,0.52786c-0.38256,0.03044 -0.73974,-0.54486 -1.08658,-0.3806c-0.43745,0.20717 -0.3655,0.94496 -0.74347,1.24731c-0.60295,0.48231 -1.67366,0.35876 -2.08287,1.01353c-0.56254,0.90013 -0.11108,2.16073 -0.51451,3.14253c-1.25705,3.05921 -3.24936,3.67717 -2.63713,7.17632c0.25136,1.43665 0.55275,2.93055 1.31782,4.17226c0.29021,0.47101 0.72907,0.84466 1.15774,1.2212l1.00787,-0.33596l0.06216,0.18648c0.23186,-0.13723 0.47087,-0.2639 0.71807,-0.3785c1.40517,-0.65143 2.5433,-0.92713 3.50171,-0.93476z" fill="#000000"></path></g></g></svg>