<svg version="1.1" xmlns="http://www.w3.org/2000/svg" xmlns:xlink="http://www.w3.org/1999/xlink" width="90.22307" height="48.85418" viewBox="0,0,90.22307,48.85418"><g transform="translate(-145.02693,-153.31774)"><g data-paper-data="{&quot;isPaintingLayer&quot;:true}" fill-rule="nonzero" stroke-width="0.5" stroke-linejoin="miter" stroke-miterlimit="10" stroke-dasharray="" stroke-dashoffset="0" style="mix-blend-mode: normal"><path d="" fill="#9966ff" stroke="none" stroke-linecap="butt"/><path d="M147.27003,156.60642c0.29419,-3.28868 3.72997,-3.28868 3.72997,-3.28868c5.82395,0 12.03802,0.02529 17.51708,2.32057c1.15227,0.48271 2.01394,1.50035 3.13049,2.06075c1.05067,0.52733 2.32439,0.55994 3.32392,1.17874c2.04626,1.2668 2.63529,2.88424 4.40597,4.28991c0.9413,0.74726 2.07815,1.22887 3,2c1.68222,1.40718 2.7072,3.59211 4.59403,4.71009c3.77157,2.23473 8.8796,1.4095 13.02851,1.43994c1.2003,0.00881 2.48734,-0.40021 3.60068,0.04842c2.21522,0.89264 4.03267,2.56 6.049,3.84c-1.40487,2.10871 -2.25087,4.72488 -4.21462,6.32612c-0.99246,0.80925 -2.57296,0.0164 -3.83438,0.23703c-2.07666,0.36322 -3.91383,1.69611 -6,2c-2.36489,0.34449 -4.90256,-1.00508 -7.16562,-0.23703c-0.63385,0.21512 -0.68391,1.20864 -1.2424,1.57761c-1.52466,1.00729 -3.18865,1.81223 -4.89162,2.47491c-2.21701,0.86271 -4.67943,1.01028 -6.86599,1.94748c-2.58176,1.10659 -4.65792,3.31739 -7.34837,4.12455c-1.34911,0.40475 -2.84688,-0.2299 -4.22512,0.06059c-5.61792,1.1841 -6.08358,11.79022 -14.05424,7.39247c-1.82108,-1.00477 -1.20432,-3.99246 -1.55734,-6.04216c-0.55948,-3.24841 0.00149,-7.10442 0.04842,-10.39932c-0.64118,-1.92354 -0.66667,-4 -1,-6c-0.56423,-3.38536 -1.54459,-6.69135 -2.02033,-10.1425c-0.54824,-3.97714 -0.0281,-8.43882 -0.0281,-12.45819z" fill="#ff0000" stroke="none" stroke-linecap="butt"/><path d="M194,177.06774l41,-1" fill="none" stroke="#000000" stroke-linecap="round"/></g></g></svg>