<svg version="1.1" xmlns="http://www.w3.org/2000/svg" xmlns:xlink="http://www.w3.org/1999/xlink" width="555.55556" height="426.42643" viewBox="0,0,555.55556,426.42643"><g transform="translate(34.77478,40.47047)"><g data-paper-data="{&quot;isPaintingLayer&quot;:true}" fill-rule="nonzero" stroke="none" stroke-linecap="butt" stroke-linejoin="miter" stroke-miterlimit="10" stroke-dasharray="" stroke-dashoffset="0" style="mix-blend-mode: normal"><path d="M-34.77477,385.95596v-426.42643h555.55556v426.42643z" fill="#03ff00" stroke-width="0"></path><path d="M282.04204,200.76827c-1.31991,-0.06343 -2.75858,0.36057 -3.95971,-0.1903c-1.28676,-0.59015 -1.76631,-2.31411 -3.00301,-3.00301c-0.59846,-0.33337 -1.36174,0.1645 -2.04629,0.1903c-0.36678,0.01382 -6.27584,-0.00617 -6.40646,-0.03228c-2.7,-0.53967 -5.01641,-2.34555 -7.68144,-3.0376c-2.7756,-0.72077 -6.17496,0.68861 -9.00901,0c-3.00466,-0.73007 -5.67187,-2.47263 -8.57113,-3.54749c-0.54376,-1.04129 -0.79982,-2.29402 -1.63127,-3.12387c-0.79212,-0.7906 -2.23246,-0.68986 -3.00301,-1.5015c-1.98329,-2.08907 -1.87427,-5.49422 -3.36186,-7.96095c-0.70115,-1.16264 -2.09006,-1.76925 -2.90448,-2.85556c-0.61561,-0.82112 -0.59391,-2.05684 -1.32123,-2.78088c-1.01206,-1.0075 -2.57042,-1.29527 -3.67839,-2.19622c-1.12044,-0.9111 -1.67294,-2.48745 -2.938,-3.18398c-0.76609,-0.4218 -1.7772,0.35441 -2.62067,0.12342c-1.39286,-0.38145 -2.71409,-1.06875 -3.8904,-1.90652c-1.15308,-0.82123 -1.8705,-2.15362 -3.003,-3.003c-0.89533,-0.67149 -2.10978,-0.82722 -3.00301,-1.5015c-4.13459,-3.12115 -8.69473,-8.27786 -9.98036,-13.46574c-0.69405,-2.8007 -0.5497,-5.82369 0,-8.65627c0.2132,-1.09866 1.22851,-1.91765 1.5015,-3.00301c0.23004,-0.91461 -0.21958,-1.9043 -0.0346,-2.82908c0.31044,-1.55198 1.001,-3.00301 1.5015,-4.5045c0.03388,-3.11182 -0.46074,-5.26385 2.65489,-7.73217c0.87935,-0.69666 2.3555,0.31524 3.36062,-0.18308c1.10321,-0.54694 1.51286,-1.9826 2.49793,-2.72141c2.93946,-2.20459 4.46124,-1.67665 7.80902,-3.18935c2.25843,-1.02048 3.81701,-3.1933 5.94146,-4.46946c2.36959,-1.42342 5.16926,-1.96869 7.69268,-3.09717c2.76509,-1.23655 5.00365,-3.51561 7.82269,-4.62367c2.55401,-1.00388 5.48775,-0.10727 8.23197,-0.10727c2.6152,0 5.2304,0 7.8456,0c-0.54748,-0.94451 -1.01666,-1.91047 -1.26971,-2.93162c-0.68775,-2.77527 -0.06687,-5.71817 -0.06687,-8.57739c0,-2.30849 -0.86389,-9.32933 0.37337,-11.32934c1.34593,-2.17568 4.53594,-2.6309 6.10453,-4.65195c1.24648,-1.60603 1.22402,-3.49816 1.11939,-5.40889c-0.08979,-0.36471 -0.08979,-0.63685 -0.08979,-0.63685l0.05262,-0.0158c-0.0281,-0.49761 -0.05262,-0.99441 -0.05262,-1.4857l1.66654,0.50046c0.55733,-1.49896 2.33495,-1.49896 2.33495,-1.49896c5.50551,0 11.01101,0 16.51652,0c0.65121,0 6.22531,-0.0187 6.58038,0.06688c2.63283,0.63463 4.99801,2.24036 7.67063,2.67811c4.28852,0.70242 10.22578,0.73063 14.50982,0.27191c3.17343,-0.3398 6.36771,-0.66284 9.46986,-1.413c1.16705,-0.28221 2.07666,-1.31395 3.25562,-1.54134c0.38846,-0.07492 6.73958,-0.06256 8.06325,-0.06256c4.5045,0 9.00901,0 13.51351,0c2.36904,0 4.7704,0.42271 7.10706,0.03228c3.12216,-0.52168 5.88646,-2.48368 9.00901,-3.003c5.62437,-0.93541 12.70567,-0.16072 18.41847,-0.03228c1.3211,0.0297 2.75859,-0.36057 3.95972,0.1903c1.28676,0.59014 1.7663,2.3141 3.003,3.003c0.59846,0.33337 1.36154,-0.17041 2.04629,-0.1903c1.50087,-0.0436 3.00308,-0.01536 4.5045,0c1.44482,0.01478 2.91863,0.3823 4.33373,0.09042c0.95414,-0.1968 1.55498,-1.29702 2.50751,-1.5015c1.49802,-0.32159 3.0942,0.27792 4.5964,-0.02354c1.09728,-0.2202 2.002,-1.001 3.003,-1.5015c6.07761,-0.11362 12.53928,-0.63704 18.5924,-0.06688c1.60179,0.15087 3.75624,-0.51646 4.77077,0.73223c1.27562,1.57004 0.40873,4.0271 0.72006,6.02593c0.24387,1.56568 0.63102,3.10565 0.9442,4.65895c0.70477,3.49551 1.87489,6.88621 2.0673,10.46711c0.51691,9.61999 0.06276,19.42988 -0.02862,29.06427c-0.98215,3.00922 -2.36897,5.90772 -3.003,9.00901c-0.99102,4.8475 1.02189,10.32368 -0.0346,15.18894c-0.47497,2.18733 -2.4831,3.82892 -3.003,6.00601c-0.23251,0.97362 0.25128,2.03405 0,3.003c-0.07143,0.27544 -3.17437,6.5852 -3.40802,6.8934c-0.74388,0.98124 -2.17447,1.39473 -2.72141,2.49793c-0.49831,1.00512 0.43938,2.42728 -0.18307,3.36063c-0.71924,1.07849 -2.44278,1.04076 -3.36187,1.95494c-0.64402,0.64058 -0.64675,1.70695 -1.10699,2.49005c-0.90559,1.54084 -1.90782,3.02721 -2.97725,4.4592c-1.81389,2.42883 -2.84904,5.36514 -4.66442,7.75977c-0.74388,0.98124 -2.17541,1.39427 -2.72141,2.49793c-0.44387,0.89721 0,2.002 0,3.003c-2.63795,2.81742 -3.98765,3.58869 -5.17221,7.29429c-0.48254,1.5095 -0.21922,3.21648 -0.81973,4.68305c-0.68002,1.66074 -2.02489,2.96615 -2.94358,4.50773c-1.25491,2.10576 -1.82185,4.63228 -3.35808,6.54252c-1.17114,1.45626 -2.42511,2.97223 -4.0744,3.85093c-0.99658,0.53095 -2.29099,-0.15494 -3.38533,0.12342c-1.08461,0.27588 -1.91434,1.24204 -3.003,1.50151c-2.84512,0.67811 -3.61466,-0.37301 -6.27493,0.04815c-4.79701,0.75941 -10.16993,2.23132 -14.64963,4.01818c-1.08427,0.43249 -1.82549,1.56151 -2.94345,1.89748c-0.13811,0.04151 -0.28341,0.08049 -0.43519,0.11705c0.19086,0.48679 0.40652,0.96238 0.63641,1.42215c0,1.001 -0.24278,2.03188 0,3.003c0.27143,1.08574 1.24203,1.91434 1.5015,3.00301c1.12991,4.74073 -1.18301,10.34254 0,15.01502c0.54937,2.16984 2.46461,3.83342 3.003,6.00601c0.98203,3.96278 0.06688,10.05761 0.06688,14.0879c0,9.50951 0,19.01902 0,28.52853c-0.24408,0.41174 -1.0707,0.89677 -0.73224,1.23523c0.33846,0.33846 0.76358,-0.65074 1.23524,-0.73223c0.98639,-0.17041 2.00205,-0.01018 3.003,0c1.19261,0.01212 2.41721,-0.20964 3.57738,0.06688c1.08866,0.25947 1.92096,1.2157 3.00301,1.5015c2.9085,0.76821 6.96312,-0.24397 9.98121,0.25276c1.6162,0.26599 3.14637,0.94912 4.76488,1.2006c1.07783,0.16747 2.21528,-0.22253 3.27193,0.04815c4.23895,1.08589 7.80247,5.00074 12.01201,6.00601c0.97363,0.23251 2.03189,-0.24278 3.003,0c1.08574,0.27143 1.92096,1.21571 3.003,1.5015c4.37055,1.15437 7.90665,-0.93059 12.39434,1.62492c0.05149,0.02932 0.10261,0.05917 0.15339,0.08951l0.00794,-0.01588l2.95456,1.47728c0.84562,0.40086 1.43041,1.26228 1.43041,2.26028c0,0.998 -0.58479,1.85943 -1.43041,2.26029l-2.68042,1.34021c-1.11277,1.13486 -5.68327,5.8524 -6.44148,6.21671c-0.49606,0.23836 -6.01944,0.1903 -6.96271,0.1903c-5.005,0 -10.01001,0 -15.01502,0c-1.1826,-0.06344 -2.45957,-0.65755 -3.5478,-0.1903c-1.30079,0.55852 -1.6785,2.50331 -3.003,3.003c-1.70425,0.64297 -3.64016,0.14935 -5.46121,0.1903c-5.79157,0.13022 -11.62221,-0.27269 -17.40634,0.12984c-1.48084,0.10305 -3.00395,0.0893 -4.42172,0.52911c-1.64112,0.5091 -2.98067,1.77715 -4.62458,2.27718c-3.22669,0.98145 -7.69919,0.06688 -11.08489,0.06688c-4.3031,0 -9.87777,0.93657 -14.0879,-0.06688c-1.08866,-0.25947 -1.90558,-1.28202 -3.003,-1.5015c-1.47235,-0.29447 -3.03216,0.29447 -4.5045,0c-1.09742,-0.21949 -1.91765,-1.22851 -3.003,-1.5015c-0.91461,-0.23005 -1.90536,0.22484 -2.82907,0.0346c-1.73881,-0.35811 -3.37384,-1.10635 -5.06076,-1.65952c-4.89114,-2.572 -11.76535,-1.35736 -17.20851,-1.30844c-0.91481,0.00822 -8.64097,0.11858 -9.6617,0.26067c-2.67059,0.37176 -5.01346,2.04085 -7.63473,2.67269c-2.19529,0.52916 -4.79771,-1.41057 -6.76757,-0.30649c-0.97627,0.54719 -0.55504,2.40574 -1.5015,3.003c-1.05866,0.66807 -2.53132,-0.0082 -3.74295,0.3065c-2.98588,0.77553 -5.80903,3.31734 -8.71309,4.41501c-2.69206,1.01753 -5.1349,2.17758 -7.57824,3.34183c-0.37804,0.43423 -0.78194,0.83112 -1.28048,1.09582l0.02191,0.03285l-4.13181,2.75455c-0.40239,0.27681 -0.88987,0.43883 -1.41519,0.43883c-1.38071,0 -2.5,-1.11929 -2.5,-2.5c0,-0.41989 0.10352,-0.8156 0.28643,-1.16301l1.47901,-2.95802l0.58024,0.29012l0.3415,-1.29871c1.1202,-0.06102 2.35719,0.31864 3.36062,-0.18307c0.00401,-0.002 0.008,-0.00401 0.01199,-0.00604c0.33754,-0.3825 0.70057,-0.72217 1.08714,-1.02842c0.47167,-0.64726 0.87759,-1.38427 1.54626,-1.78547c1.4708,-0.88247 3.24141,-1.12305 4.86212,-1.68457c4.34025,-2.18086 9.0541,-4.09101 12.88525,-7.13117c1.29523,-1.02781 2.15783,-2.62902 3.63127,-3.37935c0.78765,-0.4011 1.91193,0.67637 2.64538,0.18307c0.81505,-0.54818 0.43647,-2.02544 1.12925,-2.72176c0.715,-0.71864 1.97776,-0.60585 2.78785,-1.2153c1.29796,-0.97649 2.13795,-2.47656 3.42919,-3.46193c3.13317,-2.39099 7.30842,-4.48109 10.86802,-6.22396c1.17726,-0.57642 2.27662,-1.3742 3.54665,-1.69856c0.84733,-0.21641 1.84085,0.51923 2.62068,0.12342c1.09801,-0.5573 1.50076,-1.99903 2.49794,-2.72141c1.16951,-0.84724 2.4985,-1.52156 3.89039,-1.90652c1.43615,-0.3972 3.76619,0.93923 4.45376,-0.3827c0.26601,-0.51144 -0.32811,-1.11397 -0.37337,-1.68867c-0.11546,-1.46598 0.10226,-5.53805 0.15429,-6.81004c2.99341,-9.74304 2.41865,-19.30224 2.85237,-29.36128c0.11237,-2.60626 1.17608,-5.09132 1.51657,-7.67768c0.31335,-2.38016 -0.01873,-4.80136 -0.01873,-7.20205c0,-1.81068 0.51129,-3.67633 0.06687,-5.43162c-0.54937,-2.16984 -2.54149,-3.8158 -3.003,-6.00601c-0.32155,-1.52601 0.22269,-3.14028 -0.0346,-4.67843c-0.44301,-2.64831 -1.50831,-5.22297 -1.53378,-7.90796c0,0 0,-0.01677 0.00137,-0.04756c-2.42835,0.11656 -4.81304,0.04064 -7.08477,-0.52232c-2.17259,-0.5384 -3.83958,-2.44031 -6.00601,-3.00301c-1.21163,-0.3147 -2.6904,0.37115 -3.74295,-0.30649c-1.08996,-0.70173 -1.05739,-2.42653 -1.95494,-3.36186c-1.73866,-1.81184 -4.91638,-1.32658 -7.05407,-2.64415c-0.84028,-0.51791 -1.8564,-1.49167 -2.85285,-2.62963zM249.00901,107.67518c-2.2613,0 -4.72064,-1.03458 -6.78305,-0.10727c-2.56098,1.15148 -4.63246,3.23137 -7.19232,4.38535c-2.39428,1.07934 -5.07798,1.54486 -7.32234,2.90884c-2.15924,1.31225 -3.78386,3.46466 -6.07055,4.53954c-1.53365,0.72091 -5.48473,1.52572 -7.206,2.81667c-1.28153,0.96115 -2.07759,2.56359 -3.50807,3.28459c-0.78931,0.39784 -1.83005,-0.52441 -2.64539,-0.18307c-1.32029,0.55273 -0.36561,2.84862 -0.34811,4.27984c-0.5005,1.5015 -1.19114,2.95251 -1.5015,4.5045c-0.20767,1.03848 0.22087,2.14917 -0.0346,3.17693c-0.26997,1.08611 -1.27472,1.90707 -1.5015,3.00301c-1.39281,6.73106 2.83105,13.04025 8.03766,16.91703c0.89765,0.66838 2.10768,0.83001 3.00301,1.5015c1.87773,1.4083 2.69266,3.5615 5.11862,4.09949c1.10241,0.24447 2.38902,-0.40803 3.38532,0.12343c1.6687,0.89013 2.64877,2.71504 4.13307,3.88709c1.32696,1.04781 3.07227,1.54691 4.26557,2.74472c0.85569,0.85893 0.95416,2.2553 1.68177,3.22512c0.88438,1.17878 2.34583,1.88532 3.10153,3.15045c1.28771,2.1558 0.80723,5.34192 2.64414,7.05407c0.81868,0.76307 2.21245,0.70934 3.00301,1.5015c0.75158,0.75311 0.91449,1.92142 1.37174,2.88213c2.21234,0.6252 4.21871,1.88068 6.44389,2.45852c2.7756,0.72077 6.17496,-0.68861 9.00901,0c2.56263,0.62267 4.74769,2.45082 7.33358,2.96841c2.85191,0.57083 6.87487,-1.07587 9.56526,0.15802c0.51705,0.23713 0.90377,0.65734 1.26164,1.1199c-0.00606,-0.8182 0.26259,-1.70046 -0.05712,-2.44343c-0.56554,-1.31424 -1.77115,-2.24752 -2.65673,-3.37127c-2.93088,-4.24185 -2.0045,-9.02514 -2.0045,-14.01652c0,-1.68429 1.00988,-3.57785 0.1903,-5.0493c-0.59918,-1.07573 -1.99902,-1.50076 -2.72141,-2.49794c-0.84724,-1.16951 -1.52156,-2.49851 -1.90652,-3.8904c-0.26683,-0.96478 0.23251,-2.02937 0,-3.003c-0.5199,-2.17709 -2.46461,-3.83342 -3.003,-6.00601c-0.63044,-2.54402 0.33706,-3.84167 -0.04815,-6.27493c-0.4079,-2.57658 -1.41979,-5.07079 -1.51657,-7.67767c-0.05028,-1.35437 0.33346,-2.73733 0.06322,-4.06541c-0.22316,-1.09668 -1.24203,-1.91434 -1.5015,-3.00301c-0.56403,-2.36647 0.28699,-3.97553 -0.04815,-6.27493c-0.36816,-2.526 -1.52956,-4.93704 -2.91266,-7.08257c-0.09452,-3.23518 0.74059,-7.57478 -0.0422,-10.66653c-0.09247,-0.36524 -0.21333,-0.72383 -0.356,-1.07739c-3.57479,0 -7.1496,0 -10.72439,0z" fill="#fff700" stroke-width="0.5"></path><path d="M404.16667,192.26227c0,-2.5 2.5,-2.5 2.5,-2.5l4.77077,0.73223c0,1.001 -0.61275,2.21146 0,3.00301c0.39341,0.50821 1.17856,-0.78708 1.80962,-0.66536c1.28708,0.24827 2.37423,1.11235 3.54665,1.69855c4.43962,2.21981 9.9511,1.23711 14.90299,1.23757c3.02284,0.00028 6.21225,0.88689 9.06792,-0.10443c1.59238,-0.55279 2.63314,-2.21354 4.21663,-2.7913c1.1677,-0.42606 2.48498,-0.07152 3.72746,-0.10727c4.5045,0 9.00901,0 13.51351,0c1.001,0 2.00516,-0.07941 3.00301,0c0.57467,0.04574 1.24502,0.74149 1.68867,0.37338c0.72963,-0.6054 0.37766,-1.97374 1.04807,-2.64415c0.67041,-0.6704 2.03873,-0.31842 2.64414,-1.04806c0.36811,-0.44366 -0.32764,-1.11401 -0.37337,-1.68868c-0.07941,-0.99785 0,-2.002 0,-3.00301c0,-4.51757 -0.24319,-9.153 0.00437,-13.66137c0.25809,-4.70014 0.83373,-9.91669 1.73018,-14.52956c0.3086,-1.58793 1.07299,-3.07522 1.29053,-4.67816c0.63223,-4.65867 -0.05899,-9.90658 0.16822,-14.63417c1.7104,-1.82676 3.57979,-3.68062 4.5045,-6.006c0.51369,-1.2918 1.03112,-2.59361 1.34348,-3.94825c0.54329,-2.35611 -0.32499,-2.25411 -1.26986,-4.48752c-0.26975,-0.63761 0.01554,-1.64096 -0.57976,-1.99441c-0.65456,-0.38864 -1.52069,0.47495 -2.26306,0.30649c-1.09141,-0.24767 -1.92096,-1.21571 -3.00301,-1.5015c-3.9297,-1.03793 -5.96945,0.9061 -9.8964,-1.90651c-2.05376,-1.47097 -3.61619,-3.53109 -5.50452,-5.20914c-6.39263,-5.68079 -12.16135,-11.09594 -17.5084,-17.77975c0,0 -1.56174,-1.95217 0.39043,-3.51391c1.95217,-1.56174 3.51391,0.39043 3.51391,0.39043c5.17323,6.46653 10.73887,11.66514 16.92588,17.16618c2.11467,1.88021 4.32921,5.33106 7.22186,5.98646c1.95251,0.44239 4.05856,-0.46416 6.00601,0c1.08866,0.25947 1.922,1.21179 3.003,1.50151c1.20915,0.32407 2.71755,-0.41157 3.74295,0.30649c1.27965,0.89612 1.6753,2.64006 2.42325,4.0116c3.63662,6.66856 0.86185,13.73315 -4.43088,18.59126c0.38704,4.16175 0.70909,9.28844 0.16822,13.38385c-0.22464,1.70095 -1.0103,3.28604 -1.33843,4.97009c-1.45485,7.46672 -1.64249,15.16222 -1.64249,22.73139c0,2.30561 0.87363,9.73084 -0.37338,11.82484c-0.66327,1.11378 -2.44523,1.03831 -3.36186,1.95494c-0.91663,0.91664 -0.84116,2.69859 -1.95494,3.36186c-0.7718,0.45962 -6.02094,0.37337 -7.32033,0.37337c-4.5045,0 -9.00901,0 -13.51351,0c-0.75952,-0.03575 -1.57626,-0.39869 -2.27855,-0.10727c-1.52192,0.63153 -2.53517,2.25149 -4.10388,2.75571c-1.43081,0.4599 -8.9874,0.35442 -10.62959,0.35457c-5.88439,0.00054 -11.80154,0.90332 -17.13905,-1.76543c-0.82999,-0.415 -1.56954,-1.0411 -2.45935,-1.30445c-1.35804,-0.40192 -3.1301,0.26677 -4.19639,-0.66535c-0.75364,-0.65881 0,-2.002 0,-3.00301l-1.23524,0.73224c0,0 -2.5,0 -2.5,-2.5z" fill="#fff700" stroke-width="0.5"></path><path d="M299.1334,131.52322c-0.71161,-0.25023 -1.57334,-0.85626 -1.57334,-2.32402c0,-0.25487 0.02598,-0.48376 0.07265,-0.6893c-0.6877,0.10962 -1.37934,0.17969 -2.07716,0.18631c0,0 -2.5,0 -2.5,-2.5c0,-2.5 2.5,-2.5 2.5,-2.5c2.41893,0.03001 4.7322,-1.00861 7.10705,-1.46922c3.27328,-0.63487 7.15922,0.87381 10.33659,0.03459c1.08204,-0.28579 1.91434,-1.24203 3.003,-1.5015c5.81445,-1.38582 12.44034,0.95721 18.35688,0.19388c0.14711,-0.28572 0.29263,-0.59929 0.43614,-0.94623c0.55185,-1.3341 -0.04246,-3.06434 0.76106,-4.2638c0.72389,-1.08058 2.43343,-1.05094 3.38981,-1.93243c0.91085,-0.83952 1.64479,-1.92543 2.06147,-3.09198c0.40262,-1.12721 -0.21996,-2.5085 0.32043,-3.57653c0.62716,-1.2395 2.29111,-1.71197 2.96891,-2.92452c0.33425,-0.59796 -0.21001,-1.36154 -0.19031,-2.0463c0.0797,-2.77053 -0.23419,-9.35178 6.39146,-6.84131c2.14679,0.81342 2.28356,3.9872 3.28969,6.05071c1.29914,2.66443 1.31076,5.82935 1.32486,8.7936c0.01169,2.45762 0.07782,4.94164 0.08677,7.42372c1.51763,0.03915 3.03197,0.11026 4.52028,0.12358c2.49661,-0.84953 4.77095,-2.34575 7.33358,-2.96841c4.21408,-1.02394 9.71094,-0.06687 14.0879,-0.06687c1.2994,0 6.54854,-0.08625 7.32034,0.37337c1.11378,0.66327 1.0475,2.43613 1.95494,3.36187c2.59981,2.65222 9.86047,1.83055 8.15599,8.41544c-0.46834,1.80934 -3.33925,1.91477 -4.43797,3.42669c-0.76078,1.04689 0.11049,2.88827 -0.81124,3.79666c-0.76382,0.75276 -2.45208,-0.58682 -3.21277,0.16909c-0.97215,0.96604 -0.14629,2.90346 -0.97651,3.99389c-1.05748,1.38892 -3.07188,1.74027 -4.31918,2.96159c-2.27396,2.2266 -2.73401,6.48207 -4.64849,8.99471c-1.0236,1.3434 -2.38384,2.39318 -3.57575,3.58977c-1.034,1.83617 -2.4031,3.86686 -3.53904,5.92076c0.92637,2.54192 1.88686,5.07014 2.89188,7.59051c0.75775,1.90025 1.48479,3.87124 2.72141,5.50094c0.85571,1.12772 2.18178,1.84993 3.00301,3.00301c0.83777,1.17631 1.52156,2.49851 1.90652,3.8904c0.26683,0.96478 -0.24278,2.03189 0,3.00301c0.27143,1.08574 1.24203,1.91434 1.5015,3.003c0.3223,1.35226 -0.05618,7.5701 -0.66535,8.34816c-0.61709,0.78816 -2.21146,-0.61275 -3.00301,0c-0.5082,0.39341 0.44357,1.20641 0.66536,1.80962c-0.87343,1.51842 -1.10766,3.67183 -2.62029,4.55524c-0.39875,0.23288 -8.982,0.714 -10.13616,0c-1.21467,-0.75143 -1.34368,-2.53631 -2.21528,-3.66785c-0.7323,-0.9507 -1.61791,-1.78791 -2.55987,-2.53143c-1.29778,-1.02438 -2.8097,-1.75188 -4.12905,-2.74833c-0.5611,-0.42379 -0.84158,-1.21947 -1.4887,-1.49455c-0.08769,-0.03727 -0.17621,-0.07198 -0.26548,-0.10441c-2.79485,3.49565 -6.71028,6.63411 -9.84712,9.75128c-1.24479,1.23699 -2.35548,2.6285 -3.74543,3.69979c-1.77302,1.36653 -4.11896,2.13076 -5.43968,3.93817c-0.73726,1.00894 -0.87212,2.43155 -1.76184,3.309c-1.96001,1.93299 -5.15665,2.26623 -7.10318,4.21281c-1.03969,1.03971 -1.61228,2.45934 -2.41843,3.68901c-1.8575,-0.01182 -3.95202,0.87256 -5.5725,-0.03545c-3.67444,-2.05891 -2.72058,-7.84816 -2.68717,-11.13564c0.01212,-1.19261 -0.20964,-2.41721 0.06687,-3.57738c0.25947,-1.08866 1.22851,-1.91765 1.5015,-3.00301c0.23005,-0.91461 -0.22165,-1.90471 -0.0346,-2.82907c0.62781,-3.10256 2.36898,-5.90772 3.00301,-9.00901c0.42414,-2.07465 -0.15778,-4.24526 -0.10292,-6.3604c-1.77123,-0.75713 -6.70314,-3.42224 -7.0635,-3.93682c-0.71807,-1.0254 0.01757,-2.53379 -0.3065,-3.74294c-0.28972,-1.081 -1.001,-2.002 -1.5015,-3.00301c-0.01425,-0.7624 -0.12674,-5.58731 -0.06687,-6.58039c0.06443,-1.06871 0.89684,-2.25622 0.37337,-3.19017c-0.54719,-0.97627 -2.44132,-0.5335 -3.003,-1.5015c-1.58303,-2.72819 0.42347,-6.86586 -0.30649,-9.74896c-0.50241,-1.98435 -1.89052,-3.63149 -2.80595,-5.46236c-0.94131,-1.88263 -1.5227,-3.9855 -2.79504,-5.66226c-0.85571,-1.12772 -2.18368,-1.84857 -3.00301,-3.003c-0.476,-0.67068 -0.0936,-1.89706 -0.78773,-2.33816c-0.97764,-0.62126 -2.7238,0.53835 -3.45644,-0.35886c-0.54719,-0.67011 -0.64705,-1.53918 -0.66039,-2.44675z" fill="#ff0000" stroke-width="0.5"></path><path d="M84.11011,53.85786c1.76776,1.76776 0,3.53553 0,3.53553l-0.76927,-0.26626c-0.12446,1.43911 0.36572,3.07625 -0.37337,4.31733c-0.66327,1.11378 -2.4541,1.02952 -3.36187,1.95494c-0.7837,0.79895 -0.70933,2.21245 -1.5015,3.00301c-0.75311,0.75158 -2.23546,0.52684 -2.88214,1.37174c-0.79671,1.04091 -0.61435,2.55459 -1.06516,3.78545c-2.05427,5.60881 -3.01176,11.72184 -4.39039,17.64754c-0.44169,1.89849 -1.29278,7.24528 -1.73328,8.13284c-0.68766,1.38554 -2.32324,2.08344 -3.21071,3.35033c-1.91372,2.73191 -2.96651,5.97525 -4.476,8.94966c-1.35813,1.28364 -2.40495,3.01118 -4.0744,3.85093c-1.1805,0.5938 -2.63861,0.21952 -3.95972,0.1903c-1.44413,-0.03194 -3.10651,0.4143 -4.31733,-0.37337c-0.55303,-0.35976 -3.88634,-6.60814 -4.12179,-7.55825c-0.28688,-1.15766 -0.12751,-2.38626 -0.06688,-3.57739c0.03016,-0.59264 0.71061,-1.28606 0.33793,-1.74783c-0.63935,-0.79219 -2.07327,-0.53654 -2.77601,-1.27308c-1.44949,-1.51923 -2.77043,-3.28054 -3.46066,-5.26363c-0.42992,-1.23521 0.83129,-2.73517 0.26611,-3.91464c-0.4097,-0.855 -2.00324,-0.34941 -2.64415,-1.04806c-1.06421,-1.16008 -1.71484,-2.68841 -2.16685,-4.19639c-0.25111,-0.8377 0.51923,-1.84085 0.12342,-2.62068c-0.5573,-1.09801 -1.99902,-1.50076 -2.72141,-2.49793c-0.84724,-1.16951 -1.59281,-2.48073 -1.90651,-3.89039c-0.29861,-1.34185 0.63851,-2.84766 0.12342,-4.12218c-0.53044,-1.31249 -2.41286,-1.71625 -3.003,-3.003c-0.55088,-1.20113 -0.12687,-2.63981 -0.1903,-3.95972c0,0 0,-2.5 2.5,-2.5c2.5,0 2.5,2.5 2.5,2.5c-0.06343,0.6821 -0.52367,1.44784 -0.1903,2.0463c0.6889,1.2367 2.4815,1.68694 3.00301,3.00301c0.60028,1.51487 -0.15624,3.28154 0.12342,4.88683c0.44138,2.53355 3.36144,3.56126 4.38108,5.62368c0.50044,1.01224 -0.08168,2.27492 0.12343,3.38533c0.34141,1.84831 3.33789,2.09333 4.198,3.76456c0.77813,1.51195 -0.2054,3.46061 0.26611,5.09437c0.73557,2.54873 4.40528,3.20374 5.77535,5.4753c1.75908,2.91653 -0.39475,4.05711 0.27105,6.68679c0.22776,0.89957 0.94289,1.60473 1.30445,2.45935c0.26975,0.63761 0.01648,1.59188 0.57976,1.99441c0.46903,0.33518 1.11288,-0.34514 1.68867,-0.37337c0.68422,-0.03354 1.43209,0.49367 2.0463,0.1903c0.86493,-0.42721 1.28774,-1.43672 1.93161,-2.15508c0.43339,-0.88221 4.1343,-8.4603 4.46826,-8.93889c0.76149,-1.09128 2.25223,-1.60137 2.86004,-2.78514c1.06551,-2.07521 0.74162,-4.60996 1.26971,-6.88218c1.42902,-6.14856 2.28606,-12.61007 4.61862,-18.3885c0.69517,-1.72213 0.83467,-3.72958 1.93785,-5.22356c0.69781,-0.945 2.29402,-0.79982 3.12387,-1.63127c0.7906,-0.79212 0.70106,-2.22083 1.5015,-3.00301c0.67809,-0.66262 2.03874,-0.31842 2.64414,-1.04806c0.36812,-0.44365 -0.24891,-1.12578 -0.37337,-1.68867l2.23373,-3.26927c0,0 1.76777,-1.76776 3.53554,0z" fill="#000000" stroke-width="0.5"></path><path d="M153.17918,127.96397c-1.76776,1.76776 -3.53554,0 -3.53554,0l-1.5015,-1.5015c-1.08778,-1.103 -2.33385,-2.06967 -3.26334,-3.30899c-0.59378,-0.7917 -0.54184,-1.99678 -1.24116,-2.69701c-0.69428,-0.69518 -1.88971,-0.6438 -2.67928,-1.2285c-2.62293,-1.94236 -5.10849,-4.06375 -7.64844,-6.11342c-2.85874,-2.30693 -7.22901,-5.76739 -9.70263,-8.37623c-1.12269,-1.18406 -1.64307,-2.86837 -2.812,-4.00678c-0.0661,-0.06437 -0.13397,-0.1266 -0.20341,-0.18693c-2.33571,7.36482 -11.14376,5.62908 -17.22851,5.62908c-2.002,0 -4.04055,0.38074 -6.00601,0h-4.5045c-1.38071,0 -2.5,-1.11929 -2.5,-2.5c0,-0.99801 0.58479,-1.85943 1.4304,-2.26029l2.68237,-1.34118c3.6344,-3.64306 9.22229,-8.0975 14.32936,-9.34216c0.73959,-0.18025 1.60851,0.69513 2.26306,0.30649c0.43983,-0.26114 0.39733,-0.87775 0.45513,-1.43865c-0.5859,-0.42341 -1.16117,-0.85316 -1.45051,-1.48401c-0.55088,-1.20113 -0.12687,-2.63981 -0.1903,-3.95972v-3.003v0c0,-1.38071 1.11929,-2.5 2.5,-2.5c1.38071,0 2.5,1.11929 2.5,2.5v2.29161c0.1629,0.19197 0.34564,0.36844 0.53869,0.53661c0.25977,-0.22795 0.4894,-0.47993 0.65762,-0.78194c0.33334,-0.59847 -0.12686,-1.36419 -0.1903,-2.04629c0,0 0,-2.5 2.5,-2.5c2.5,0 2.5,2.5 2.5,2.5c-0.06343,1.31991 0.36718,2.76163 -0.19031,3.95971c-0.58964,1.26717 -1.92385,2.01447 -2.88868,3.03871c-0.05614,0.48842 -0.10288,0.97778 0.00911,1.4362c0.43501,1.7806 1.13963,3.63818 2.44407,4.92588c1.14224,1.12758 2.87843,1.51748 4.0294,2.63614c1.22026,1.18601 1.7961,2.91817 2.96129,4.15834c2.40232,2.55692 6.47362,5.7152 9.23661,7.94168c2.44941,1.9738 4.85016,4.01095 7.36658,5.89859c1.00538,0.75417 2.43759,0.88626 3.32673,1.77451c0.88404,0.88316 1.01208,2.30932 1.76184,3.309c0.76932,1.02575 1.82844,1.798 2.74266,2.69701l1.50151,1.5015c0,0 1.76776,1.76777 0,3.53553zM113.83479,95.18036c-0.04831,0.03763 -0.09765,0.07412 -0.14808,0.10943c-1.0254,0.71807 -2.53025,-0.00402 -3.74295,0.3065c-3.1547,0.80778 -6.52305,3.15243 -9.35687,5.57734c3.42727,-0.00138 6.85717,-0.03301 10.28399,0.00005c1.49518,0.01443 3.00436,0.46461 4.23824,-0.76927c2.42517,-2.42516 0.19188,-3.63478 -1.27433,-5.22405z" fill="#000000" stroke-width="0.5"></path><path d="M202.46246,116.68419c-2.5,0 -2.5,-2.5 -2.5,-2.5c0,-5.00501 0,-13.01301 0,-18.01802c0,-0.34286 -0.00513,-2.03329 0.00228,-3.61719c-0.69234,0.03091 -1.49144,-0.26219 -2.19395,-0.26219c-0.69703,2.06895 -2.47536,3.59868 -3.79073,5.34115c-0.75288,0.99734 -0.84178,2.46342 -1.76184,3.30899c-3.06305,2.81506 -10.40698,3.10763 -14.35416,2.16686c-1.08866,-0.25947 -1.91726,-1.23007 -3.003,-1.5015c-0.97111,-0.24278 -2.03405,0.25128 -3.003,0c-0.39911,-0.1035 -5.92338,-2.88692 -6.54966,-3.20006c-0.40197,-0.20099 -6.17183,-3.07517 -6.34975,-3.21097c-3.56538,-2.72133 -4.89834,-6.06721 -6.7803,-9.91908c-0.57543,-1.17775 -1.43572,-2.26247 -1.69856,-3.54665c-0.3395,-1.65872 -0.04459,-3.38592 -0.06688,-5.07889c0,0 0,-2.5 2.5,-2.5c2.5,0 2.5,2.5 2.5,2.5c-0.08254,4.85028 2.28997,11.42916 6.46928,14.48841c1.69844,1.24326 3.77963,1.85372 5.66226,2.79504c1.83086,0.91543 3.47137,2.33049 5.46235,2.80595c0.97362,0.23251 2.03189,-0.24278 3.003,0c1.08574,0.27143 1.92096,1.21571 3.003,1.5015c1.81031,0.47815 6.00305,0.33709 7.86024,0c1.53099,-0.27789 2.1215,-2.28512 3.05078,-3.53316c1.68603,-2.26438 3.75874,-4.25428 5.21828,-6.67086c1.001,0 2.12838,0.48687 3.003,0c0.60491,-0.33674 0.30703,-1.35807 0.57976,-1.99441c0.49349,-1.15139 0.95269,-2.34849 1.70946,-3.34674c0.70883,-0.93501 2.03179,-1.35923 2.63705,-2.34714c0.08788,-0.92433 -0.54681,-2.00095 -0.03907,-2.77148c0.10711,-0.16254 0.22032,-0.31991 0.33885,-0.47275l-0.1418,-0.0709l1.47728,-2.95456c0.40086,-0.84561 1.26228,-1.43041 2.26029,-1.43041c1.38071,0 2.5,1.11929 2.5,2.5c0,0.41989 -0.10352,0.81561 -0.28642,1.16302l-1.24606,2.49213c0.52159,1.15577 0.37847,2.02138 0.01175,2.82387c-0.03854,0.16591 -0.09387,0.32757 -0.17106,0.4837c-0.16084,0.32532 -0.36837,0.61727 -0.60429,0.88923c-0.31255,0.5268 -0.61162,1.08277 -0.77379,1.73144c-0.24278,0.97111 0.24278,2.03189 0,3.003c-0.27143,1.08574 -1.21571,1.92096 -1.5015,3.003c-0.46239,1.75064 0.06688,3.62095 0.06688,5.43162c0,5.00501 0,10.01001 0,15.01502v3.003c0,0 0,2.5 -2.5,2.5z" fill="#000000" stroke-width="0.5"></path><path d="M73.33333,194.26677c2.5,0 2.5,2.5 2.5,2.5l-0.26393,2.61954c-1.46604,2.91153 -4.67128,5.84257 -5.87037,8.68154c-0.36152,0.85595 0.28958,1.8861 0.06141,2.78682c-0.64759,2.55644 -2.5524,4.72941 -2.96841,7.33358c-0.24601,1.53999 0.29862,3.15492 -0.0346,4.67843c-0.69378,3.1721 -2.49413,4.18823 -4.07531,6.7765c-0.96782,1.58425 -1.37679,3.52742 -2.59605,4.92739c-0.73502,0.84395 -2.20784,0.71396 -3.003,1.5015c-0.7082,0.70141 -0.63754,1.93136 -1.25399,2.71464c-1.09258,1.38829 -2.52966,2.4668 -3.79448,3.7002c-1.38111,0.91992 -2.84098,1.73137 -4.14333,2.75976c-1.29769,1.0247 -2.15417,2.63624 -3.63127,3.37935c-1.03311,0.51974 -2.30936,0.25147 -3.46422,0.1903c-2.26591,-0.12001 -4.93831,0.6101 -6.76777,-0.73223c-1.29716,-0.95177 -0.58136,-3.16898 -0.73223,-4.77077c-0.27606,-2.93077 0,-6.06379 0,-9.00901c0,-4.004 0,-8.00801 0,-12.01201c0,-2.81163 0.6366,-5.68132 0.06688,-8.43463c-0.22677,-1.09594 -1.23332,-1.91646 -1.5015,-3.003c-0.56754,-2.29945 0.66259,-4.1294 -0.71485,-6.32382c-0.76677,-1.22155 -2.08287,-1.99554 -3.1243,-2.99331c0,0 -1.76777,-1.76777 0,-3.53553c1.76777,-1.76777 3.53553,0 3.53553,0c1.31559,1.35925 2.99602,2.44239 3.94677,4.07776c1.29396,2.22573 0.59048,5.13054 1.22309,7.62614c0.275,1.08484 1.2883,1.90435 1.5015,3.003c1.10945,5.71703 0.06688,12.71594 0.06688,18.5924c0,3.003 0,6.00601 0,9.00901c0,1.001 0.17042,2.01662 0,3.003c-0.08149,0.47166 -1.20148,1.14082 -0.73223,1.23524c1.08301,0.2179 2.13454,-0.60786 3.23223,-0.73223c0.5175,-0.05863 1.10829,0.46494 1.5508,0.1903c1.00288,-0.62243 1.46485,-1.87481 2.37474,-2.62666c1.29037,-1.06625 2.78478,-1.85816 4.17717,-2.78725c0.96668,-0.9216 2.08675,-1.70538 2.90003,-2.76481c0.75653,-0.98551 0.87427,-2.4091 1.74902,-3.29137c0.78797,-0.79474 2.2617,-0.66307 3.003,-1.5015c0.97886,-1.10712 1.12733,-2.74281 1.87609,-4.01688c0.51882,-0.88281 3.20664,-3.83567 3.46456,-5.30025c0.25038,-1.42169 -0.28071,-2.90814 -0.0346,-4.33058c0.46943,-2.7131 2.37862,-5.00804 3.0376,-7.68143c0.25686,-1.04207 -0.36505,-2.2343 0.06141,-3.21919c1.37168,-3.16783 4.54253,-6.11229 6.14165,-9.33647l-0.26393,-0.38347c0,0 0,-2.5 2.5,-2.5z" fill="#000000" stroke-width="0.5"></path><path d="M108.12094,221.27123c-1.79497,4.38978 -3.94034,8.71924 -6.3138,12.71193c-1.48256,2.494 -3.99411,4.3813 -5.0678,7.07671c-0.50184,1.25983 0.29012,3.01337 -0.61722,4.02122c-0.66975,0.74393 -2.21146,-0.61275 -3.003,0c-0.50821,0.39341 0.77537,1.17642 0.66536,1.80962c-0.25658,1.4768 -2.71827,2.92642 -1.808,4.1173c0.30372,0.39735 0.95149,0.3534 1.45076,0.38271c2.17385,0.12759 4.3797,0.29191 6.53267,-0.0346c1.11877,-0.16967 2.39093,-0.20617 3.26696,-0.92242c0.95987,-0.7848 0.79051,-2.55783 1.82518,-3.241c0.9362,-0.61815 2.3555,0.31524 3.36062,-0.18307c1.1032,-0.54693 1.66529,-1.81427 2.49794,-2.72141c4.86231,-2.33159 5.99918,-6.45383 6.47511,-11.65597c0.10272,-1.12273 0.67399,-2.36163 0.18448,-3.37724c-0.65943,-1.36813 -2.39419,-1.91721 -3.31755,-3.12304c-0.46026,-0.60106 -0.14493,-1.66385 -0.72264,-2.1531c-1.10116,-0.93253 -2.69245,-1.06852 -3.93926,-1.7949c-0.49828,-0.29029 -0.98655,-0.59734 -1.46979,-0.91275zM109.94499,216.44059c0.75384,0.50201 1.50186,1.01493 2.27076,1.48789c1.61156,0.99128 3.58365,1.42845 5.00501,2.67724c0.76156,0.6691 0.61352,1.97205 1.2153,2.78785c1.07794,1.46129 3.06312,2.26854 3.75351,3.94803c0.71412,1.73721 0.24217,3.75439 0.18448,5.63177c-0.20001,6.50827 -2.70668,12.34941 -8.53991,15.37106c-1.16936,1.09487 -2.07759,2.56359 -3.50807,3.2846c-0.78931,0.39784 -1.91287,-0.67776 -2.64538,-0.18307c-0.83022,0.56067 -0.35721,2.19038 -1.17782,2.76501c-3.35426,2.3488 -5.63151,2.1272 -9.14551,2.11287c-5.55899,-0.02267 -11.04632,-0.27424 -9.94063,-7.57889c0.1675,-1.10655 1.17895,-1.93134 1.5015,-3.003c0.40818,-1.35617 -0.26676,-3.1301 0.66536,-4.19639c0.65881,-0.75364 2.23348,0.64018 3.003,0c0.53263,-0.44311 -0.84626,-1.33089 -0.61722,-1.98479c0.55342,-1.58 1.83548,-2.80052 2.77798,-4.18413c2.91776,-4.2833 5.53977,-8.87057 7.70547,-13.6396c-0.17957,0.03378 -0.37602,0.05226 -0.59096,0.05226c-2.5,0 -2.5,-2.5 -2.5,-2.5l0.06688,-3.57739c0.12214,-0.15299 0.24427,-0.30598 0.36641,-0.45897l-0.16935,-0.08468l1.47728,-2.95456c0.40086,-0.84561 1.26228,-1.43041 2.26029,-1.43041c0.99801,0 1.85943,0.58479 2.26029,1.43041l0.42304,0.84607c0.47911,-0.55843 1.30569,-1.08204 2.61175,-0.64669c2.37171,0.79057 1.58114,3.16228 1.58114,3.16228c-0.09647,0.28818 -0.19468,0.57662 -0.29459,0.86523z" fill="#000000" stroke-width="0.5"></path><path d="M160.68669,266.1021c-1.76777,1.76777 -3.53553,0 -3.53553,0l-2.23373,-3.26927c0,-6.34134 0,-12.68268 0,-19.02402c0,-2.47631 0.69924,-5.03442 0.06688,-7.42862c-0.28579,-1.08205 -1.28202,-1.90558 -1.5015,-3.003c-0.29447,-1.47234 0.29447,-3.03216 0,-4.5045c-0.21948,-1.09742 -1.2883,-1.90435 -1.5015,-3.003c-0.32255,-1.6621 -0.04459,-3.38592 -0.06688,-5.07889c0,0 0,-2.5 2.5,-2.5c2.5,0 2.5,2.5 2.5,2.5c-0.02229,1.31004 -0.33237,2.64707 -0.06688,3.93012c0.22677,1.09594 1.28202,1.90558 1.5015,3.003c0.29447,1.47234 -0.29447,3.03216 0,4.5045c0.21948,1.09742 1.24203,1.91434 1.5015,3.003c0.6629,2.78131 0.06688,5.71817 0.06688,8.57739c0,6.34134 0,12.68268 0,19.02402l0.76927,-0.26627c0,0 1.76777,1.76777 0,3.53553z" fill="#000000" stroke-width="0.5"></path><path d="M199.72572,243.57958c-0.26287,0.26287 -0.52573,0.44756 -0.78279,0.57151c-0.04423,0.88558 -0.21504,1.72251 -0.71871,2.4315c-1.26511,1.78079 -4.607,0.39631 -6.312,1.76184c-1.10494,0.88494 -1.84993,2.18177 -3.003,3.003c-0.68382,0.48702 -1.41693,0.922 -2.18439,1.27649c0.07842,0.26248 0.14314,0.52838 0.18733,0.79946c0.26304,1.61372 0.11675,3.27212 0.03228,4.90496c-0.02978,0.57572 -0.74005,1.24383 -0.37337,1.68868c0.71184,0.86359 2.44132,0.5335 3.003,1.5015c0.72496,1.24939 0.24892,2.87822 0.37337,4.31733v1.5015c0,0 0,2.5 -2.5,2.5c-2.5,0 -2.5,-2.5 -2.5,-2.5v-1.5015c0.12446,-0.56289 0.74005,-1.24383 0.37337,-1.68868c-0.71184,-0.86359 -2.44132,-0.5335 -3.003,-1.5015c-0.72496,-1.24939 -0.31491,-2.87403 -0.37337,-4.31733c-0.05537,-1.36694 0.26244,-2.75549 0.03228,-4.10405c-0.05165,-0.30263 -0.12808,-0.59895 -0.21999,-0.89135c-0.96261,0.34504 -1.74345,1.18406 -2.74391,1.42251c-1.16017,0.27652 -2.38492,0.04459 -3.57739,0.06688c0,0 -2.5,0 -2.5,-2.5c0,-2.5 2.5,-2.5 2.5,-2.5c1.7405,0.04793 3.36953,-0.84088 5.05,-1.33099c0.06697,-0.54067 0.15466,-1.08269 0.02439,-1.60063c-0.27299,-1.08535 -1.24203,-1.91434 -1.5015,-3.003c-0.46416,-1.94745 0.44239,-4.05349 0,-6.00601c-0.46515,-2.05299 -2.50169,-3.49742 -3.83915,-4.81262c0,0 -1.76777,-1.76777 0,-3.53553c1.76777,-1.76777 3.53553,0 3.53553,0c2.52984,2.56523 4.21072,3.56979 5.16986,7.19939c0.51148,1.93556 -0.51125,4.07038 0,6.00601c0.28579,1.08205 1.23154,1.9169 1.5015,3.003c0.15459,0.62194 0.05871,1.27425 0.0049,1.92254c0.21318,-0.09956 0.4157,-0.22188 0.60471,-0.37326c1.10494,-0.88494 1.84993,-2.18177 3.003,-3.003c1.17631,-0.83777 2.47932,-1.59926 3.8904,-1.90652c0.62797,-0.13674 1.51306,1.23553 1.80962,0.66536c0.43576,-0.83778 -0.48816,-1.82449 -0.73223,-2.73674l5.76927,-0.26627c0,0 1.76777,1.76777 0,3.53553z" fill="#000000" stroke-width="0.5"></path><path d="M208.46847,266.83434c-2.5,0 -2.5,-2.5 -2.5,-2.5l0.26393,-0.38347c-0.30536,-0.61071 -3.10567,-6.16878 -3.20006,-6.54966c-1.12783,-4.55113 -0.06688,-10.87551 -0.06688,-15.5894c0,0 0,-2.5 2.5,-2.5c2.5,0 2.5,2.5 2.5,2.5c0,4.22652 -1.09153,10.39362 -0.06688,14.44063c0.50241,1.98435 1.89052,3.63149 2.80595,5.46235l0.26393,2.61954c0,0 0,2.5 -2.5,2.5z" fill="#000000" stroke-width="0.5"></path><path d="M204.46697,222.29229c0,-1.38071 1.11929,-2.5 2.5,-2.5c1.38071,0 2.5,1.11929 2.5,2.5c0,1.38071 -1.11929,2.5 -2.5,2.5c-1.38071,0 -2.5,-1.11929 -2.5,-2.5z" fill="#000000" stroke-width="0.5"></path><path d="M112.19477,316.77427c-0.12619,0.66818 -0.24592,1.33588 -0.35584,2.00304c-1.23185,7.47676 -1.35332,15.31187 -3.03679,22.69661c-0.14039,0.61586 -0.74349,2.34524 -1.43728,4.25323v4.19278c0,1.38071 -1.11929,2.5 -2.5,2.5c-1.38071,0 -2.5,-1.11929 -2.5,-2.5v-4.5045c0,-0.23364 0.00385,-0.46751 0.01016,-0.70152c-0.00139,-0.08625 0.00137,-0.17204 0.00787,-0.25744c0.05381,-1.58766 0.1976,-3.18046 -0.00063,-4.75255c-0.55507,-4.40215 -2.53519,-8.61141 -3.00652,-13.04932c-0.42047,-3.95904 -0.01389,-8.78048 -0.01389,-12.7707c0,0 0,-2.5 2.5,-2.5c2.5,0 2.5,2.5 2.5,2.5c0,0.1751 -0.00088,0.35197 -0.00251,0.53043l1.43263,0.03945c0.74289,-0.39403 1.48749,-0.78512 2.23386,-1.17293c0.61292,-3.30229 1.1848,-6.60563 1.54115,-9.91791c0.04232,-0.39336 0.2565,-9.0553 0.359,-9.51359c0.58523,-2.61649 2.50027,-4.83004 2.99449,-7.46524c0.19076,-1.01716 -0.23738,-2.10269 0.02177,-3.10462c0.32823,-1.26904 1.11965,-2.37061 1.69856,-3.54665c1.90582,-3.87169 4.58964,-9.64684 8.78687,-11.70218c1.18677,-0.58115 2.63981,-0.12687 3.95971,-0.1903c5.13491,0.09599 7.16271,1.62267 10.77678,5.23674c2.20725,2.20725 4.51145,3.90351 5.16986,7.19939c0.60435,3.02524 -0.42623,6.27587 -1.65402,9.10603c-1.16491,2.6852 -1.33988,6.00571 -3.38029,8.10429c-3.02463,3.11085 -4.93813,2.46548 -7.87229,4.85409c-1.26446,1.02936 -2.21027,2.40864 -3.45098,3.4665c-1.21853,1.03895 -2.76936,1.67036 -3.90173,2.80259c-1.22324,1.22309 -1.80154,3.011 -3.07903,4.17731c-0.97289,0.88821 -2.3298,1.23051 -3.50226,1.83117c-1.42671,0.73091 -2.8604,1.44797 -4.29864,2.15582zM106.89866,319.3208l-2.67624,0.05003c-0.06834,2.32224 -0.09485,4.66811 0.12554,6.75737c0.16703,1.5834 0.53034,3.13877 0.95277,4.68518c0.17553,-1.72176 0.34765,-3.4336 0.57001,-5.1013c0.28445,-2.13338 0.64263,-4.26311 1.02791,-6.39129zM113.45779,310.53635c0.26628,-0.13052 0.53279,-0.26054 0.79955,-0.39004c0.82895,-0.40243 1.83909,-0.53361 2.50375,-1.17184c1.15105,-1.10529 1.64909,-2.77091 2.77742,-3.89938c1.22467,-1.22482 2.87498,-1.94548 4.19177,-3.07067c1.2946,-1.10624 2.29364,-2.53671 3.62008,-3.60457c2.14554,-1.72729 5.15565,-2.24745 7.14272,-4.15492c0.55103,-0.52895 0.45688,-1.45866 0.72817,-2.17268c0.60426,-1.59037 1.20552,-3.18385 1.89754,-4.73805c0.82179,-1.84565 1.74597,-3.92804 1.34898,-5.90899c-0.40142,-2.00304 -2.60457,-3.57804 -3.83915,-4.81262c-2.72857,-2.72857 -3.44064,-3.87693 -7.24124,-3.77227c-3.14111,-0.29212 -4.58123,2.21981 -6.14669,4.85089c-1.2887,2.16591 -2.84571,4.2859 -3.4322,6.73701c-0.22506,0.94061 0.21343,1.95341 0.02177,2.90139c-0.23508,1.16277 -0.84023,2.21896 -1.27975,3.32083c-0.56437,1.41486 -1.3954,2.74328 -1.73177,4.22894c-0.66414,2.93333 0.04127,6.02804 -0.28044,9.01836c-0.23829,2.21493 -0.63827,4.42845 -1.08051,6.63859z" fill="#000000" stroke-width="0.5"></path><path d="M139.13313,324.12813c0.78621,-0.78621 1.57243,-0.87309 2.20313,-0.72718c0.01336,-0.66869 0.08008,-1.34415 0.06764,-2.00956c0,0 0,-2.5 2.5,-2.5c2.5,0 2.5,2.5 2.5,2.5c-0.04858,1.76411 0.88295,3.40938 1.35379,5.11769c2.75592,0.39414 5.81438,-0.61016 8.55868,-0.0779c1.55377,0.30136 2.96834,1.12045 4.5045,1.5015c1.43194,0.3552 3.63904,-0.5814 4.37031,0.69995c4.37935,7.67358 -1.89717,9.18638 -6.65574,11.51134c-1.17775,0.57543 -2.26247,1.43572 -3.54665,1.69856c-1.65872,0.3395 -3.38668,0.12208 -5.07889,0.06688c-1.44371,-0.04709 -3.13976,0.4632 -4.31733,-0.37337c-4.13653,-2.93867 -2.40057,-7.24779 -2.36194,-11.18999c-0.53766,-0.19979 -1.07532,-0.39956 -1.6188,-0.57694l-2.4787,-2.10544c0,0 -1.76777,-1.76777 0,-3.53553zM147.9085,331.5204c0.00133,0.92623 -0.00057,1.67762 -0.0031,1.88301c-0.01597,1.29731 -0.83519,3.2807 0.31583,3.87938c0.51144,0.26602 1.11304,-0.34197 1.68868,-0.37337c2.16619,-0.11816 4.45978,-0.24631 6.38947,-1.23757c0.99549,-0.51137 1.96987,-1.07123 3.003,-1.5015c0.63911,-0.26617 1.46711,-0.13113 1.99441,-0.57976c0.37244,-0.31687 0.78445,-1.1816 0.35886,-1.42241c-0.51616,-0.29205 -1.04763,0.77672 -1.63569,0.69995c-1.56941,-0.20487 -2.95456,-1.18109 -4.5045,-1.5015c-2.41197,-0.49862 -5.09431,0.24357 -7.60696,0.15378z" fill="#000000" stroke-width="0.5"></path><path d="M184.44444,358.42593c-1.45279,0 -2.06134,-0.84424 -2.31625,-1.55152c-0.9255,-0.00199 -1.80742,-0.09553 -2.45452,-0.68222c-1.04923,-0.95128 -0.2587,-2.83976 -0.66536,-4.19639c-0.79059,-2.63747 -2.58494,-4.96549 -3.0376,-7.68143c-0.21654,-1.29922 0.65692,-2.72926 0.15802,-3.94825c-0.53621,-1.31015 -2.41286,-1.71625 -3.003,-3.003c-0.63318,-1.3806 0.16398,-6.49336 -0.12342,-7.88983c-0.21671,-1.05295 -1.14501,-1.84646 -1.46685,-2.87217c-0.74713,-2.38109 -0.6298,-4.98765 -1.44774,-7.34535c-0.70382,-2.02876 -1.93402,-3.83466 -2.89436,-5.75534c0,0 -1.11803,-2.23607 1.11803,-3.3541c2.23607,-1.11803 3.3541,1.11803 3.3541,1.11803c0.13918,0.27837 3.06329,6.11628 3.11165,6.25667c0.8496,2.46636 0.7625,5.18445 1.55526,7.66966c0.35355,1.10834 1.31328,1.99202 1.53615,3.13383c0.32435,1.66175 0.0962,3.38603 0.06688,5.07889c-0.01186,0.68494 -0.52367,1.44784 -0.1903,2.04629c0.6889,1.2367 2.48635,1.68502 3.003,3.003c0.61596,1.57132 -0.11944,3.39598 0.15802,5.06076c0.43355,2.60131 2.48939,4.74026 2.96841,7.33358c0.11674,0.632 -0.96585,1.24151 -0.66536,1.80962c0.2238,0.42311 0.82349,-0.48816 1.23524,-0.73223l2.5,4.0015c0,0 0,2.5 -2.5,2.5z" fill="#000000" stroke-width="0.5"></path><path d="M204.96246,324.3944c0,2.27767 -2.07512,2.48023 -2.4442,2.49824c-0.44181,1.00768 -0.87556,2.0229 -1.74447,2.63139c-1.0254,0.71807 -2.53132,-0.0082 -3.74295,0.3065c-2.03838,0.52944 -3.65504,2.13141 -5.62368,2.87958c-1.23793,0.47047 -2.73874,0.32035 -3.82321,1.08044c-0.65737,0.46074 -0.60229,1.48827 -0.90344,2.2324c0,0 -1.11803,2.23607 -3.3541,1.11803c-2.23607,-1.11803 -1.11803,-3.3541 -1.11803,-3.3541c0.69986,-1.25787 0.96558,-2.88698 2.09957,-3.7736c2.28422,-1.78595 5.4231,-2.07586 8.02748,-3.35044c1.17737,-0.5762 2.27193,-1.39312 3.54665,-1.69856c0.74029,-0.17738 1.6085,0.69514 2.26306,0.3065c0.5953,-0.35346 0.38651,-1.32961 0.57976,-1.99441l3.73757,-1.38197c0,0 2.5,0 2.5,2.5zM202.83087,326.20129l0.36616,-0.68886c-0.1327,0.21967 -0.25266,0.45125 -0.36616,0.68886z" fill="#000000" stroke-width="0.5"></path><path d="M213.97147,346.91692c0,2.5 -2.5,2.5 -2.5,2.5h-1.5015c-1.19246,-0.02229 -2.41721,0.20964 -3.57739,-0.06688c-1.08866,-0.25947 -1.91766,-1.22851 -3.003,-1.5015c-0.91461,-0.23005 -1.90472,0.22164 -2.82908,0.0346c-0.33965,-0.06873 -8.85461,-2.91751 -9.39912,-3.09901c0,0 -2.37171,-0.79057 -1.58114,-3.16228c0.79057,-2.37171 3.16228,-1.58114 3.16228,-1.58114c2.87639,0.9588 5.64438,2.3195 8.6189,2.90699c1.03897,0.2052 2.14916,-0.22087 3.17693,0.0346c1.81733,0.45172 3.5597,1.48617 5.43162,1.43462h1.5015c0,0 2.5,0 2.5,2.5z" fill="#000000" stroke-width="0.5"></path><path d="M251.20057,353.22266c0.01468,0.02802 0.02952,0.05593 0.04451,0.08373zM250.60833,351.92864c0.46188,0.0312 2.40218,0.29334 2.40218,2.49578c0,2.5 -2.5,2.5 -2.5,2.5l-3.73757,-1.38197c-0.3444,-0.78442 -0.41366,-1.76158 -1.0332,-2.35327c-0.80934,-0.77296 -2.21164,-0.71014 -3.003,-1.5015c-0.73433,-0.73433 -0.71742,-2.01011 -1.34339,-2.82258c-0.0318,0.78462 -0.25632,1.57818 -0.76823,2.36914c-0.95176,1.47059 -2.88075,2.10598 -4.55525,2.6203c-0.10447,0.03209 -0.2144,0.0193 -0.32685,-0.02153c-1.58807,3.40557 -4.77343,6.70412 -6.87697,9.44566c-0.21406,0.27899 -0.8248,1.03089 -1.61894,1.98106c-0.52747,1.11652 -1.14468,2.14223 -1.99586,2.94447c-0.39269,0.37011 -0.84486,0.65621 -1.32594,0.90151c-1.38742,1.53987 -2.60491,2.77564 -2.93296,2.78076c-0.55907,0.00872 -1.06697,-0.13842 -1.54091,-0.38894l-0.08899,0.17798l-2.95456,-1.47728c-0.84561,-0.40086 -1.43041,-1.26228 -1.43041,-2.26029c0,-1.38071 1.11929,-2.5 2.5,-2.5l2.56801,0c0.48128,-0.23954 0.91375,-0.54539 1.30813,-0.90343c0.48608,-0.7098 1.05339,-1.38135 1.63515,-2.04689c0.52371,-0.85172 0.9833,-1.79399 1.43554,-2.75197c-1.90623,-0.17443 -4.23459,0.67429 -5.7116,-0.54045c-0.88409,-0.72711 -0.73223,-6.29334 -0.73223,-7.77377c0,-4.07282 0.13033,-6.19302 1.6918,-9.96572c0.70503,-1.70343 0.74184,-3.76995 1.92257,-5.1858c1.6018,-1.92079 6.16785,-3.2345 8.66197,-2.25396c0.23215,-0.07121 0.47869,-0.10954 0.73417,-0.10954c0.69036,0 1.31536,0.27982 1.76777,0.73223l2.86617,2.86617c1.9816,1.24024 3.84209,2.45879 4.35716,2.97252c0.84314,0.84096 0.88386,2.29064 1.73624,3.12222c0.81677,0.79684 2.24545,0.74284 3.05244,1.54959c0.79148,0.79124 0.71014,2.21164 1.5015,3.003c0.79136,0.79136 2.22594,0.69609 3.003,1.5015c0.61285,0.63521 0.97826,1.45122 1.33306,2.27499zM224.29168,343.36912c-0.35182,0.92214 -1.13001,1.66539 -1.37808,2.62068c-0.4551,1.75255 0.06688,3.62095 0.06688,5.43162c0,1.001 0.17042,2.01662 0,3.003c-0.02686,0.15546 -0.08709,0.29912 -0.16515,0.43622c0.51969,-0.42261 1.14237,-0.78003 1.36146,-1.39293c0.29436,-0.8235 -0.35441,-1.77721 -0.12342,-2.62068c0.38144,-1.39286 1.05929,-2.72089 1.90652,-3.8904c0.72239,-0.99717 2.12224,-1.42221 2.72141,-2.49794c0.81958,-1.47144 -0.1903,-3.365 -0.1903,-5.0493l0,-0.71784c-2.95992,-1.70936 -3.89861,3.88941 -4.19931,4.67756zM231.53477,349.2406c-0.01974,-0.17368 -0.03754,-0.34706 -0.04628,-0.51927c-1.08953,0.87618 -2.12326,1.26503 -2.56888,3.27448c-0.11632,0.52451 -0.02187,1.09501 0.04821,1.65427c0.55471,-0.07128 1.11944,-0.11594 1.39805,-0.53998c0.63607,-0.96807 -0.50005,-2.67926 0.35886,-3.45644c0.23142,-0.2094 0.50655,-0.33796 0.81004,-0.41306z" fill="#000000" stroke-width="0.5"></path><path d="M299.55706,352.92292c0,2.5 -2.5,2.5 -2.5,2.5h-1.5015c-1.19246,-0.02229 -2.41973,0.22 -3.57739,-0.06688c-3.21958,-0.79785 -5.86438,-3.57384 -9.00901,-4.5045c-1.35804,-0.40192 -3.1301,0.26676 -4.19639,-0.66536c-0.75364,-0.65881 0.70781,-2.29519 0,-3.003c-0.70781,-0.70781 -2.32153,0.73321 -3.003,0c-0.87422,-0.94059 0.03235,-2.66551 -0.54193,-3.81406c-0.49129,-0.98258 -1.64071,-1.4613 -2.46107,-2.19194c0,0 -1.76777,-1.76777 0,-3.53553c1.76777,-1.76777 3.53553,0 3.53553,0c1.18164,1.27135 2.76871,2.26161 3.54493,3.81406c0.33659,0.67319 -1.10398,1.69136 -0.54193,2.19194c0.7475,0.66576 2.29519,-0.70781 3.003,0c0.70781,0.70781 -0.61275,2.21146 0,3.003c0.39341,0.50821 1.17856,-0.78708 1.80962,-0.66536c4.31466,0.83228 6.87699,4.56321 11.43763,4.43763h1.5015c0,0 2.5,0 2.5,2.5z" fill="#000000" stroke-width="0.5"></path><path d="M316.57658,359.92743c-2.5,0 -2.5,-2.5 -2.5,-2.5c0,-4.004 0,-11.01101 0,-15.01502c0,-0.64307 -0.01871,-6.23502 0.06688,-6.58039c0.09439,-0.38087 2.8947,-5.93894 3.20006,-6.54966c0,0 1.11803,-2.23607 3.3541,-1.11803c2.23607,1.11803 1.11803,3.3541 1.11803,3.3541c-0.91543,1.83086 -2.30354,3.478 -2.80595,5.46235c-0.44442,1.75529 0.06688,3.62095 0.06688,5.43162c0,4.004 0,8.00801 0,12.01201v3.003c0,0 0,2.5 -2.5,2.5z" fill="#000000" stroke-width="0.5"></path><path d="M253.51351,273.84635c2.5,0 2.5,2.5 2.5,2.5v1.5015c-0.12446,0.56289 -0.74149,1.24502 -0.37337,1.68868c0.6054,0.72963 1.98002,0.37144 2.64414,1.04806c0.37122,0.37821 3.07421,5.86154 3.4713,6.65574c0,0 0.38167,0.76335 0.25301,1.62104h2.01543c1.38071,0 2.5,1.11929 2.5,2.5c0,1.38071 -1.11929,2.5 -2.5,2.5h-3.003c-0.50648,0 -1.01326,0.00178 -1.52026,0.00465c-1.56203,0.38505 -3.20084,0.146 -4.82339,0.03906c-1.89127,0.01148 -3.78211,0.00855 -5.66837,-0.04371c-1.30261,0 -2.60522,0 -3.90783,0c-0.96927,0.631 -1.44542,1.94667 -2.37588,2.67961c-1.55799,1.22725 -3.15049,2.51305 -5.00385,3.21913c-1.16156,0.44252 -2.48596,0.16827 -3.72746,0.10727c-0.57579,-0.02829 -1.24383,-0.74005 -1.68868,-0.37337c-0.86359,0.71184 -0.5335,2.44132 -1.5015,3.003c-1.24939,0.72496 -2.87822,0.24892 -4.31733,0.37337c0,0 -2.5,0 -2.5,-2.5c0,-2.5 2.5,-2.5 2.5,-2.5c0.56289,0.12446 1.24383,0.74005 1.68868,0.37337c0.86359,-0.71184 0.5335,-2.44132 1.5015,-3.003c1.90322,-1.10434 4.55065,0.5456 6.59587,-0.2661c2.28897,-0.90844 3.68963,-3.32978 5.59556,-4.89253l-0.36659,-1.22075c0.5005,0 1.001,0 1.5015,0c0.00001,0 0.32411,0 0.73892,0.1167c0.12926,-0.04527 0.25994,-0.08391 0.39187,-0.1167c1.49024,0 2.98048,0 4.47073,0c0.13543,0.00265 0.27031,0.00289 0.40449,0c1.74964,-0.03772 3.50167,-0.04244 5.25408,-0.03581c0.85887,-0.07556 1.74117,-0.25051 2.60001,-0.32595c-0.58557,-1.54847 -0.95452,-3.24257 -2.11435,-4.37948c-0.92574,-0.90744 -2.69859,-0.84116 -3.36186,-1.95494c-0.33023,-0.55452 -0.41505,-1.18811 -0.41894,-1.84777c-0.14233,0.01984 -0.29458,0.03044 -0.45743,0.03044c-2.5,0 -2.5,-2.5 -2.5,-2.5v-1.5015c0.05155,-1.87192 -1.00046,-3.61002 -1.43462,-5.43162c-0.88635,-3.71882 -0.06688,-8.75163 -0.06688,-12.58639c0,-0.14787 -0.0003,-0.29598 -0.00086,-0.44432c-0.69543,-0.03507 -1.36751,-0.05868 -2.00364,-0.05868c0,0 -2.5,0 -2.5,-2.5c0,-2.5 2.5,-2.5 2.5,-2.5c0.60071,0 1.24574,0.02806 1.91864,0.06961c-0.11058,-4.71686 -0.22153,-9.52884 0.39801,-14.08059c0.34196,-2.51237 1.20696,-4.97757 1.18936,-7.51305c0,0 0,-2.5 2.5,-2.5c2.5,0 2.5,2.5 2.5,2.5c-0.01564,2.76231 -0.85552,5.45835 -1.236,8.19439c-0.61661,4.43404 -0.56345,9.10096 -0.43859,13.72407c1.65912,0.0607 3.26335,0.01244 4.60621,-0.32756c2.16984,-0.54937 3.83937,-2.44112 6.00601,-3.003c0.96895,-0.25128 2.02928,0.23208 3.003,0c1.26655,-0.30187 2.27947,-1.67182 3.57739,-1.56838c1.75039,0.13951 3.44817,1.07872 4.77077,2.23373c1.04195,0.90992 1.3132,2.43516 1.9698,3.65274l-3.73757,3.61803c0,0 -2.5,0 -2.5,-2.5c0,-0.69801 0.19489,-1.20114 0.47584,-1.56379c-0.28676,-0.31585 -0.61507,-0.50678 -0.97884,-0.44072c-0.9251,0.168 -1.51956,1.19452 -2.42862,1.43462c-0.96781,0.25562 -2.02938,-0.23251 -3.003,0c-2.17709,0.5199 -3.83342,2.46461 -6.00601,3.003c-1.66758,0.41325 -3.62467,0.466 -5.62067,0.39999c0.02329,1.06665 0.03878,2.12546 0.03878,3.1729c0,2.41545 -0.68113,6.10899 -0.06688,8.43463c0.28579,1.08205 1.24203,1.91434 1.5015,3.003c0.08652,0.36299 0.12326,0.7323 0.13359,1.10496c0.13624,-0.01799 0.28147,-0.02758 0.43629,-0.02758z" fill="#000000" stroke-width="0.5"></path><path d="M253.51351,323.89139c-2.5,0 -2.5,-2.5 -2.5,-2.5v-1.5015c0.12446,-1.43911 -0.36571,-3.07625 0.37337,-4.31733c0.66327,-1.11378 2.4541,-1.02952 3.36186,-1.95494c0.7837,-0.79894 0.71014,-2.21164 1.5015,-3.003c0.79136,-0.79136 2.15551,-0.77057 3.003,-1.5015c1.52309,-1.31361 0.43381,-3.26122 0.83615,-4.81262c0.1035,-0.39911 2.88692,-5.92338 3.20006,-6.54966c0,0 1.11803,-2.23607 3.3541,-1.11803c2.23607,1.11803 1.11803,3.3541 1.11803,3.3541c-0.91543,1.83086 -2.33049,3.47137 -2.80595,5.46235c-0.23251,0.97362 0.2885,2.04448 0,3.003c-0.45372,1.50747 -1.10901,3.0305 -2.16686,4.19639c-0.75202,0.82883 -2.21164,0.71014 -3.003,1.5015c-0.79136,0.79136 -0.70106,2.22083 -1.5015,3.003c-0.67809,0.66262 -2.03874,0.31843 -2.64414,1.04806c-0.36812,0.44365 0.24892,1.12578 0.37337,1.68868v1.5015c0,0 0,2.5 -2.5,2.5z" fill="#000000" stroke-width="0.5"></path></g></g></svg>