<svg version="1.1" xmlns="http://www.w3.org/2000/svg" xmlns:xlink="http://www.w3.org/1999/xlink" width="349.09112" height="216.57298" viewBox="0,0,349.09112,216.57298"><g transform="translate(-36.48588,-27.70255)"><g data-paper-data="{&quot;isPaintingLayer&quot;:true}" fill="#ff0000" fill-rule="nonzero" stroke="none" stroke-width="0.5" stroke-linecap="butt" stroke-linejoin="miter" stroke-miterlimit="10" stroke-dasharray="" stroke-dashoffset="0" style="mix-blend-mode: normal"><path d="M70.92023,30.60169c5.89698,0.8425 11.80458,2.0261 17.34759,3.11514c6.42605,1.26254 12.53437,4.31889 19.08212,4.83049c6.40955,0.5008 12.76264,-0.52619 19.15622,-0.62172c3.69913,-0.05527 7.13508,-0.82702 10.15456,1.39831c4.41336,-1.36017 9.07556,-3.15738 13.62307,-3.93758c6.51951,-1.11853 13.61636,-0.88626 20.22222,-1.30833c23.02766,-1.47128 46.32133,1.00036 68.8298,5.91684c13.587,2.98525 27.80462,2.09399 41.62163,2.1009c7.59934,0.0038 15.44864,2.36981 23.04979,1.41758c1.64266,-0.20578 3.16301,-1.0404 4.80375,-1.261c1.77634,-0.23883 6.9678,0.01202 9.10012,-0.15052c6.57798,-0.50142 13.17722,-1.8272 19.72886,-2.64284c2.0542,-0.06731 5.55628,0.06962 7.71891,-0.73855c1.45224,-0.5427 2.70023,-1.5553 4.15674,-2.08641c5.76854,-2.10349 12.33206,-3.33718 18.27751,-4.89273c2.16685,-0.56693 6.84066,-2.16142 8.7662,-0.29896c1.58787,1.53586 1.24891,4.2405 1.75223,6.39152c0.02154,0.09206 1.80935,9.97166 1.80981,9.9753c1.74993,13.97526 2.85723,28.23015 4.07899,42.27464c1.42362,16.37159 -0.20318,32.78938 0.97422,49.12198c0.94333,13.08571 0.66085,26.72238 -5.67761,38.6665c0,3.74546 -1.99575,5.65509 -2.82086,9.17767c-0.83176,3.55096 -0.19479,5.91371 -1.48813,9.39148c-1.05513,2.83721 -2.99475,5.28733 -4.07876,8.11363c-0.42253,1.10166 -2.60733,7.60199 -2.77387,8.79745c-0.22993,1.65054 0.21845,3.35101 -0.02669,4.99935c-0.41451,2.78723 -2.13573,5.2327 -2.85209,7.95801c-0.95644,3.63865 0.51039,8.31398 0.06472,12.07313c-0.22245,1.87636 0.61637,4.72517 -1.07601,5.56545c-2.1639,1.0744 -4.78596,-0.77998 -7.08843,-1.51171c-4.52983,-1.43959 -8.75366,-3.81532 -13.38696,-5.19451c-3.4246,-1.29819 -7.90427,-2.8488 -11.54055,-3.41278c-6.45672,-1.00144 -13.38092,0.75933 -19.88727,0.01567c-3.18827,-0.36441 -6.32049,-1.43829 -9.52883,-1.37187c-9.37191,0.19401 -18.69682,1.05637 -28.11192,0.68441c-8.79672,-0.34753 -17.4543,-1.39984 -26.28008,-1.40579c-8.67618,0.92542 -17.2396,2.34688 -25.73727,3.49745c-7.77144,1.05224 -15.31837,3.43968 -23.19806,4.21584c-16.54661,1.62986 -32.60075,1.29514 -49.1487,-0.0257c-3.13163,-0.90195 -6.44558,-0.97182 -9.67829,-1.3844c-4.53177,-0.57839 -8.61805,-2.44587 -13.22763,-2.79536c-5.25807,-0.39865 -10.69298,0.00629 -15.97171,0.00629c-0.52552,0 -5.8181,0.01287 -6.08979,-0.04511c-1.23261,-0.26303 -2.27067,-1.17848 -3.51064,-1.40426c-1.34023,-0.24403 -2.73997,0.22575 -4.08675,0.02094c-1.65201,-0.25122 -3.17802,-1.06869 -4.82063,-1.37546c-1.85789,-0.34698 -3.79421,0.20815 -5.66999,-0.02336c-5.3895,-0.66518 -9.47818,-2.59254 -14.56697,-0.04815c-5.12961,0.10141 -9.75881,-0.96387 -14.82314,-1.3459c-1.46487,-0.1105 -2.95775,0.21633 -4.40702,-0.02376c-1.46031,-0.24193 -2.75271,-1.16078 -4.21277,-1.40426c-1.40891,-0.23495 -2.88043,0.24637 -4.28508,-0.01283c-0.34688,-0.06401 -7.90878,-3.11441 -7.95891,-3.2244c-2.338,-5.13044 1.40121,-6.22111 3.59506,-9.1178c0.5729,-0.75644 2.30091,-5.16236 2.47103,-5.66607c1.77121,-5.24441 0.43086,-9.72079 1.29401,-14.98487c0.98914,-6.03245 3.76105,-12.12028 5.69256,-17.90541c1.12217,-4.36287 0.26189,-8.01789 -0.09341,-12.46423c-0.08268,-1.03472 0.28546,-2.10011 0.06059,-3.11348c-0.59139,-2.66504 -2.25014,-5.02285 -2.79568,-7.69766c-1.33579,-6.54952 -1.44954,-13.53003 -2.09736,-20.16672c-0.11681,-1.19673 -0.15106,-6.79605 0.07721,-7.30779c0.80089,-1.79547 2.52567,-3.01397 3.82064,-4.49322c1.04464,-1.1933 2.03567,-2.44368 3.19731,-3.52341c1.02893,-0.95638 3.56969,-1.15751 3.35812,-2.54626c-0.18837,-1.23645 -1.4211,-2.06567 -2.00325,-3.17264c-2.02292,-3.84666 -3.66686,-8.08309 -5.48906,-12.03116c-3.24354,-7.09652 -3.75183,-13.38652 -3.75183,-21.08232c0,-3.45705 0.95594,-8.71168 0.06688,-12.06392c-0.26832,-1.01169 -1.16229,-1.79019 -1.40426,-2.80851c-0.08538,-0.35934 -0.06688,-5.54165 -0.06688,-6.1914c0,-6.34206 -0.51884,-13.07052 1.57943,-19.17466c0.52701,-1.53314 2.33022,-2.44949 2.7406,-4.01788c0.20177,-0.77109 -0.23379,-1.6058 -0.08854,-2.38951c0.26399,-1.42442 0.86666,-2.76471 1.29999,-4.14706c1.64043,-0.73838 3.17763,-1.77255 4.92128,-2.21514c4.69608,-1.19199 9.82827,0.69209 14.51532,0.65702l2.46989,1.43436c0,0 0.15223,0.15223 0.32267,0.41202z"></path></g></g></svg>