<svg version="1.1" xmlns="http://www.w3.org/2000/svg" xmlns:xlink="http://www.w3.org/1999/xlink" width="69.41637" height="34.02689" viewBox="0,0,69.41637,34.02689"><g transform="translate(-203.62426,-162.98655)"><g data-paper-data="{&quot;isPaintingLayer&quot;:true}" fill-rule="nonzero" stroke-linejoin="miter" stroke-miterlimit="10" stroke-dasharray="" stroke-dashoffset="0" style="mix-blend-mode: normal"><g><path d="M255.35486,163.05008c10.4625,0.80481 18.36029,9.04597 17.6402,18.40716c-0.72009,9.36119 -9.78537,16.2975 -20.24788,15.49269c-10.4625,-0.80481 -18.36029,-9.04597 -17.6402,-18.40716c0.72009,-9.36119 9.78537,-16.2975 20.24788,-15.49269z" fill="#ffffff" stroke="none" stroke-width="0" stroke-linecap="butt"/><path d="M253.89763,195.03252l-46.93826,-15.64608l43.10343,-12.73162" fill="none" stroke="#ffffff" stroke-width="2" stroke-linecap="round"/><path d="M212.59657,184.33336l-2.99116,-0.23009c-1.37664,-0.1059 -2.40679,-1.30773 -2.3009,-2.68438c0.04386,-0.57023 0.27576,-1.081 0.63023,-1.47621l3.28129,-3.73915l0.0257,0.02255c0.09092,-0.10711 0.18409,-0.21254 0.27968,-0.31613c2.88409,-3.12542 5.26291,-2.23623 8.8982,-2.00732c1.99932,0.12589 3.99774,0.27752 5.99569,0.43703c0.53908,-0.57758 1.10057,-1.12175 1.7921,-1.46939c0.2694,-0.13543 6.67459,-1.77092 7.07306,-1.80392c0.81349,-0.06739 1.63705,0.56027 2.42443,0.34498c0.60492,-0.1654 0.86485,-0.90839 1.29727,-1.36259c0,0 1.89814,-1.62698 3.52512,0.27116c1.62698,1.89814 -0.27116,3.52512 -0.27116,3.52512c-0.99925,0.77295 -1.80027,1.91632 -2.99774,2.31884c-0.31274,0.10513 -0.63532,0.1343 -0.96347,0.124c0.2777,0.43917 0.42138,0.96838 0.37846,1.52629c-0.09711,1.26242 -1.11583,2.23345 -2.34583,2.30424l0.38672,0.16283c0.76798,0.30242 1.34092,0.97084 1.52233,1.77605l0.73883,2.95532c0.07445,0.27071 0.10421,0.55866 0.08144,0.85469c-0.1059,1.37664 -1.30773,2.40679 -2.68438,2.3009c-0.3117,-0.02398 -0.60563,-0.10414 -0.87264,-0.22978c-0.49562,0.6625 -1.30922,1.0649 -2.19522,0.99675c-0.29604,-0.02277 -0.57605,-0.09622 -0.83218,-0.2112l-2.86069,-1.2045l0.10666,-0.25332l-0.61007,-0.03122c-0.19673,-0.22951 -0.39542,-0.45728 -0.59588,-0.68351c-1.09735,0.00305 -2.21699,-0.57356 -3.29737,-0.35203c-1.04952,0.2152 -1.76388,1.25298 -2.76047,1.64619c-1.20759,0.47647 -2.5205,0.62314 -3.78075,0.93471l-0.39115,-0.13637l-0.0106,0.13784l-2.99116,-0.23009c-1.37664,-0.1059 -2.40679,-1.30773 -2.3009,-2.68438c0.04433,-0.57635 0.28077,-1.09196 0.64169,-1.48891c-0.32671,-0.00609 -0.66762,-0.02093 -1.02518,-0.04502zM218.32866,178.45183c-0.51851,-0.02604 -1.03551,-0.0091 -1.5502,0.07789c-0.71835,0.12141 -1.37743,0.42687 -2.02249,0.78028l0.10636,0.09334c1.41207,-0.06786 2.32888,-0.42345 3.46633,-0.95152z" fill="#ffffff" stroke="none" stroke-width="0.5" stroke-linecap="butt"/></g></g></g></svg>